%TF.GenerationSoftware,KiCad,Pcbnew,8.0.0-dirty*%
%TF.CreationDate,2024-03-12T22:31:02-04:00*%
%TF.ProjectId,KickerPCB,4b69636b-6572-4504-9342-2e6b69636164,rev?*%
%TF.SameCoordinates,Original*%
%TF.FileFunction,Copper,L1,Top*%
%TF.FilePolarity,Positive*%
%FSLAX46Y46*%
G04 Gerber Fmt 4.6, Leading zero omitted, Abs format (unit mm)*
G04 Created by KiCad (PCBNEW 8.0.0-dirty) date 2024-03-12 22:31:02*
%MOMM*%
%LPD*%
G01*
G04 APERTURE LIST*
G04 Aperture macros list*
%AMRoundRect*
0 Rectangle with rounded corners*
0 $1 Rounding radius*
0 $2 $3 $4 $5 $6 $7 $8 $9 X,Y pos of 4 corners*
0 Add a 4 corners polygon primitive as box body*
4,1,4,$2,$3,$4,$5,$6,$7,$8,$9,$2,$3,0*
0 Add four circle primitives for the rounded corners*
1,1,$1+$1,$2,$3*
1,1,$1+$1,$4,$5*
1,1,$1+$1,$6,$7*
1,1,$1+$1,$8,$9*
0 Add four rect primitives between the rounded corners*
20,1,$1+$1,$2,$3,$4,$5,0*
20,1,$1+$1,$4,$5,$6,$7,0*
20,1,$1+$1,$6,$7,$8,$9,0*
20,1,$1+$1,$8,$9,$2,$3,0*%
G04 Aperture macros list end*
%TA.AperFunction,SMDPad,CuDef*%
%ADD10RoundRect,0.250000X0.450000X-0.350000X0.450000X0.350000X-0.450000X0.350000X-0.450000X-0.350000X0*%
%TD*%
%TA.AperFunction,ComponentPad*%
%ADD11R,2.400000X2.400000*%
%TD*%
%TA.AperFunction,ComponentPad*%
%ADD12C,2.400000*%
%TD*%
%TA.AperFunction,ComponentPad*%
%ADD13R,1.600000X1.600000*%
%TD*%
%TA.AperFunction,ComponentPad*%
%ADD14O,1.600000X1.600000*%
%TD*%
%TA.AperFunction,ComponentPad*%
%ADD15R,2.800000X2.800000*%
%TD*%
%TA.AperFunction,ComponentPad*%
%ADD16O,2.800000X2.800000*%
%TD*%
%TA.AperFunction,ComponentPad*%
%ADD17R,1.700000X1.700000*%
%TD*%
%TA.AperFunction,ComponentPad*%
%ADD18O,1.700000X1.700000*%
%TD*%
%TA.AperFunction,ComponentPad*%
%ADD19R,1.905000X2.000000*%
%TD*%
%TA.AperFunction,ComponentPad*%
%ADD20O,1.905000X2.000000*%
%TD*%
%TA.AperFunction,ComponentPad*%
%ADD21R,2.000000X2.000000*%
%TD*%
%TA.AperFunction,ComponentPad*%
%ADD22O,2.000000X2.000000*%
%TD*%
%TA.AperFunction,ViaPad*%
%ADD23C,0.800000*%
%TD*%
%TA.AperFunction,Conductor*%
%ADD24C,0.250000*%
%TD*%
%TA.AperFunction,Conductor*%
%ADD25C,1.500000*%
%TD*%
G04 APERTURE END LIST*
D10*
%TO.P,U5,1*%
%TO.N,Net-(U4-A)*%
X94130000Y-80570000D03*
%TO.P,U5,2*%
%TO.N,Kicker*%
X94130000Y-78570000D03*
%TD*%
%TO.P,U2,1*%
%TO.N,GND*%
X99470000Y-80890000D03*
%TO.P,U2,2*%
%TO.N,Net-(U3-G)*%
X99470000Y-78890000D03*
%TD*%
D11*
%TO.P,U14,1*%
%TO.N,Net-(U11-K)*%
X107426407Y-64957108D03*
D12*
%TO.P,U14,2*%
%TO.N,GND*%
X107426407Y-72457108D03*
%TD*%
D13*
%TO.P,U9,1,A*%
%TO.N,Net-(U9-A)*%
X81870000Y-87075000D03*
D14*
%TO.P,U9,2,K*%
%TO.N,GND*%
X81870000Y-89615000D03*
%TO.P,U9,3,R*%
%TO.N,Net-(U10-G)*%
X89490000Y-89615000D03*
%TO.P,U9,4,R*%
%TO.N,12V*%
X89490000Y-87075000D03*
%TD*%
D15*
%TO.P,U11,1,K*%
%TO.N,Net-(U11-K)*%
X103430000Y-50620000D03*
D16*
%TO.P,U11,2,A*%
%TO.N,Net-(U10-S)*%
X90730000Y-50620000D03*
%TD*%
D17*
%TO.P,J1,1,Pin_1*%
%TO.N,Kicker*%
X119610000Y-70900000D03*
D18*
%TO.P,J1,2,Pin_2*%
%TO.N,48V*%
X119610000Y-73440000D03*
%TO.P,J1,3,Pin_3*%
%TO.N,GND*%
X119610000Y-75980000D03*
%TD*%
D19*
%TO.P,U10,1,G*%
%TO.N,Net-(U10-G)*%
X88580000Y-81080000D03*
D20*
%TO.P,U10,2,S*%
%TO.N,Net-(U10-S)*%
X86040000Y-81080000D03*
%TO.P,U10,3,D*%
%TO.N,GND*%
X83500000Y-81080000D03*
%TD*%
D21*
%TO.P,R1,1*%
%TO.N,Net-(U11-K)*%
X99780000Y-55215000D03*
D22*
%TO.P,R1,2*%
%TO.N,Net-(U3-D)*%
X94700000Y-55215000D03*
%TD*%
D19*
%TO.P,U3,1,G*%
%TO.N,Net-(U3-G)*%
X110960000Y-80625000D03*
D20*
%TO.P,U3,2,D*%
%TO.N,Net-(U3-D)*%
X108420000Y-80625000D03*
%TO.P,U3,3,S*%
%TO.N,48V*%
X105880000Y-80625000D03*
%TD*%
D13*
%TO.P,U4,1,A*%
%TO.N,Net-(U4-A)*%
X104220000Y-88055000D03*
D14*
%TO.P,U4,2,K*%
%TO.N,GND*%
X104220000Y-90595000D03*
%TO.P,U4,3,R*%
%TO.N,Net-(U3-G)*%
X111840000Y-90595000D03*
%TO.P,U4,4,R*%
%TO.N,48V*%
X111840000Y-88055000D03*
%TD*%
D11*
%TO.P,U6,1*%
%TO.N,Net-(U11-K)*%
X86476407Y-64944888D03*
D12*
%TO.P,U6,2*%
%TO.N,GND*%
X86476407Y-72444888D03*
%TD*%
D23*
%TO.N,Kicker*%
X96700000Y-78020000D03*
%TD*%
D24*
%TO.N,GND*%
X104220000Y-90595000D02*
X103115000Y-89490000D01*
X83500000Y-87985000D02*
X83500000Y-81080000D01*
X84951407Y-70919888D02*
X86476407Y-72444888D01*
X92184888Y-72444888D02*
X86476407Y-72444888D01*
X81870000Y-89615000D02*
X83500000Y-87985000D01*
X120785000Y-74805000D02*
X120785000Y-72953299D01*
X97425000Y-78845000D02*
X97425000Y-77685000D01*
X89955991Y-88200000D02*
X89024009Y-88200000D01*
X119610000Y-75980000D02*
X120785000Y-74805000D01*
X107618515Y-72265000D02*
X107426407Y-72457108D01*
X120096701Y-72265000D02*
X107618515Y-72265000D01*
X101950000Y-89490000D02*
X100000991Y-87540991D01*
X90615000Y-87540991D02*
X89955991Y-88200000D01*
X108951407Y-70932108D02*
X108951407Y-52691407D01*
X89205001Y-47124999D02*
X84951407Y-51378593D01*
X97425000Y-77685000D02*
X92184888Y-72444888D01*
X107426407Y-72457108D02*
X108951407Y-70932108D01*
X103384999Y-47124999D02*
X89205001Y-47124999D01*
X103115000Y-89490000D02*
X101950000Y-89490000D01*
X83500000Y-82675991D02*
X83500000Y-81080000D01*
X83500000Y-75421295D02*
X86476407Y-72444888D01*
X108951407Y-52691407D02*
X103384999Y-47124999D01*
X89024009Y-88200000D02*
X83500000Y-82675991D01*
X99470000Y-80890000D02*
X97425000Y-78845000D01*
X84951407Y-51378593D02*
X84951407Y-70919888D01*
X120785000Y-72953299D02*
X120096701Y-72265000D01*
X83500000Y-81080000D02*
X83500000Y-75421295D01*
X100000991Y-87540991D02*
X90615000Y-87540991D01*
D25*
%TO.N,Net-(U11-K)*%
X89826598Y-48200000D02*
X101010000Y-48200000D01*
X86476407Y-51550191D02*
X89826598Y-48200000D01*
X99780000Y-54270000D02*
X103430000Y-50620000D01*
X101010000Y-48200000D02*
X103430000Y-50620000D01*
X99780000Y-55215000D02*
X99780000Y-54270000D01*
X107426407Y-64957108D02*
X107426407Y-62861407D01*
X86476407Y-64944888D02*
X86476407Y-51550191D01*
X107426407Y-62861407D02*
X99780000Y-55215000D01*
%TO.N,Net-(U3-D)*%
X108420000Y-80625000D02*
X108420000Y-78890000D01*
X108420000Y-78890000D02*
X94700000Y-65170000D01*
X94700000Y-65170000D02*
X94700000Y-55215000D01*
%TO.N,48V*%
X117810000Y-74037919D02*
X118407919Y-73440000D01*
X111840000Y-88055000D02*
X111840000Y-83597500D01*
X111840000Y-83597500D02*
X117810000Y-77627500D01*
X118407919Y-73440000D02*
X119610000Y-73440000D01*
X117810000Y-77627500D02*
X117810000Y-74037919D01*
%TO.N,Net-(U3-G)*%
X110090000Y-88845000D02*
X110090000Y-83375000D01*
X104285000Y-82575000D02*
X100600000Y-78890000D01*
X110960000Y-82073336D02*
X110458336Y-82575000D01*
X110090000Y-83375000D02*
X109290000Y-82575000D01*
X100600000Y-78890000D02*
X99470000Y-78890000D01*
X111840000Y-90595000D02*
X110090000Y-88845000D01*
X109290000Y-82575000D02*
X104285000Y-82575000D01*
X110458336Y-82575000D02*
X109290000Y-82575000D01*
X110960000Y-80625000D02*
X110960000Y-82073336D01*
D24*
%TO.N,Net-(U4-A)*%
X94830000Y-80570000D02*
X102315000Y-88055000D01*
X94130000Y-80570000D02*
X94830000Y-80570000D01*
X102315000Y-88055000D02*
X104220000Y-88055000D01*
%TO.N,Kicker*%
X98949900Y-81990000D02*
X96700000Y-79740100D01*
X94130000Y-78570000D02*
X96150000Y-78570000D01*
X112965000Y-91060991D02*
X112305991Y-91720000D01*
X121235000Y-72525000D02*
X121235000Y-77150000D01*
X119610000Y-70900000D02*
X121235000Y-72525000D01*
X96700000Y-79740100D02*
X96700000Y-78020000D01*
X100440000Y-81990000D02*
X98949900Y-81990000D01*
X96150000Y-78570000D02*
X96700000Y-78020000D01*
X112305991Y-91720000D02*
X110170000Y-91720000D01*
X121235000Y-77150000D02*
X112965000Y-85420000D01*
X112965000Y-85420000D02*
X112965000Y-91060991D01*
X110170000Y-91720000D02*
X100440000Y-81990000D01*
%TD*%
%TA.AperFunction,Conductor*%
%TO.N,GND*%
G36*
X119860000Y-77310633D02*
G01*
X119863476Y-77309703D01*
X119933325Y-77311366D01*
X119991188Y-77350529D01*
X120018692Y-77414757D01*
X120007106Y-77483659D01*
X119983250Y-77517159D01*
X119082012Y-78418397D01*
X119020689Y-78451882D01*
X118950997Y-78446898D01*
X118895064Y-78405026D01*
X118870647Y-78339562D01*
X118883845Y-78274423D01*
X118968884Y-78107526D01*
X119029709Y-77920326D01*
X119060500Y-77725922D01*
X119060500Y-77391984D01*
X119080185Y-77324945D01*
X119132989Y-77279190D01*
X119202147Y-77269246D01*
X119216593Y-77272209D01*
X119360000Y-77310634D01*
X119360000Y-76413012D01*
X119417007Y-76445925D01*
X119544174Y-76480000D01*
X119675826Y-76480000D01*
X119802993Y-76445925D01*
X119860000Y-76413012D01*
X119860000Y-77310633D01*
G37*
%TD.AperFunction*%
%TA.AperFunction,Conductor*%
G36*
X107125561Y-41446766D02*
G01*
X107139617Y-41448303D01*
X107475300Y-41504569D01*
X107489112Y-41507705D01*
X107816168Y-41601895D01*
X107829533Y-41606587D01*
X108143712Y-41737474D01*
X108156443Y-41743653D01*
X108453652Y-41909536D01*
X108465600Y-41917132D01*
X108741925Y-42115825D01*
X108752929Y-42124732D01*
X109004804Y-42353671D01*
X109014712Y-42363770D01*
X109238811Y-42619932D01*
X109247514Y-42631110D01*
X109440928Y-42911168D01*
X109448294Y-42923259D01*
X109474922Y-42973171D01*
X109608493Y-43223550D01*
X109614437Y-43236412D01*
X109739329Y-43553013D01*
X109743767Y-43566469D01*
X109831948Y-43896081D01*
X109834560Y-43908268D01*
X109836160Y-43918129D01*
X109861897Y-44076751D01*
X109861957Y-44077124D01*
X109895753Y-44289523D01*
X109895757Y-44289543D01*
X109995127Y-44708111D01*
X110130091Y-45116596D01*
X110299645Y-45511962D01*
X110299646Y-45511964D01*
X110502540Y-45891295D01*
X110502551Y-45891314D01*
X110737295Y-46251824D01*
X110737299Y-46251829D01*
X110867950Y-46422761D01*
X130569796Y-71639974D01*
X130571194Y-71641798D01*
X130636194Y-71728250D01*
X130645533Y-71742647D01*
X130750941Y-71932788D01*
X130759011Y-71950495D01*
X130832978Y-72153696D01*
X130838179Y-72172447D01*
X130879446Y-72384719D01*
X130881649Y-72404053D01*
X130889199Y-72620160D01*
X130888351Y-72639601D01*
X130861996Y-72854242D01*
X130858116Y-72873309D01*
X130798511Y-73081174D01*
X130791696Y-73099402D01*
X130700303Y-73295386D01*
X130690721Y-73312322D01*
X130569793Y-73491595D01*
X130557679Y-73506823D01*
X130409413Y-73665807D01*
X130409412Y-73665808D01*
X130396858Y-73677526D01*
X130312863Y-73745682D01*
X130311074Y-73747106D01*
X116171003Y-84794540D01*
X116029672Y-84907858D01*
X115768826Y-85159121D01*
X115768811Y-85159137D01*
X115535299Y-85436008D01*
X115535286Y-85436026D01*
X115331625Y-85735524D01*
X115331608Y-85735552D01*
X115159970Y-86054476D01*
X115022169Y-86389468D01*
X114919713Y-86736862D01*
X114919711Y-86736870D01*
X114853678Y-87093005D01*
X114853677Y-87093011D01*
X114824779Y-87454067D01*
X114833324Y-87816164D01*
X114833324Y-87816174D01*
X114879219Y-88175444D01*
X114879223Y-88175466D01*
X114961980Y-88528083D01*
X114961985Y-88528100D01*
X115080709Y-88870264D01*
X115080717Y-88870282D01*
X115234157Y-89198381D01*
X115234158Y-89198383D01*
X115420658Y-89508874D01*
X115420659Y-89508875D01*
X115420663Y-89508881D01*
X115527529Y-89654891D01*
X115527766Y-89655217D01*
X115603766Y-89760131D01*
X115612148Y-89773393D01*
X115736118Y-90000149D01*
X115743529Y-90016383D01*
X115760313Y-90061488D01*
X115833273Y-90257564D01*
X115838278Y-90274699D01*
X115892462Y-90526264D01*
X115894955Y-90543940D01*
X115912456Y-90800681D01*
X115912385Y-90818531D01*
X115892841Y-91075125D01*
X115890207Y-91092782D01*
X115834022Y-91343906D01*
X115828881Y-91361000D01*
X115737221Y-91601457D01*
X115729679Y-91617636D01*
X115604440Y-91842444D01*
X115594652Y-91857373D01*
X115438434Y-92061864D01*
X115426605Y-92075232D01*
X115242639Y-92255179D01*
X115229012Y-92266710D01*
X115021126Y-92418370D01*
X115005985Y-92427826D01*
X114778464Y-92548071D01*
X114762122Y-92555254D01*
X114518684Y-92641943D01*
X114503588Y-92646264D01*
X114378045Y-92673730D01*
X114375601Y-92674239D01*
X113403083Y-92866577D01*
X113400701Y-92867024D01*
X111446227Y-93214014D01*
X111443495Y-93214467D01*
X109482012Y-93517688D01*
X109479271Y-93518081D01*
X107511420Y-93777436D01*
X107508670Y-93777767D01*
X105535577Y-93993108D01*
X105532821Y-93993378D01*
X103555178Y-94164626D01*
X103552762Y-94164811D01*
X102563804Y-94231000D01*
X102560990Y-94231156D01*
X102448721Y-94236111D01*
X102430944Y-94235619D01*
X102205768Y-94213154D01*
X102185850Y-94209506D01*
X101968527Y-94151013D01*
X101949468Y-94144171D01*
X101744565Y-94051087D01*
X101726874Y-94041234D01*
X101539855Y-93916042D01*
X101524003Y-93903441D01*
X101359852Y-93749478D01*
X101346263Y-93734465D01*
X101209364Y-93555843D01*
X101198399Y-93538819D01*
X101187231Y-93517904D01*
X101092391Y-93340285D01*
X101084346Y-93321707D01*
X101012066Y-93108569D01*
X101007154Y-93088942D01*
X100970320Y-92865626D01*
X100968695Y-92847965D01*
X100966432Y-92735411D01*
X100966407Y-92732919D01*
X100966407Y-92313580D01*
X100966407Y-92313553D01*
X100963938Y-92112254D01*
X100924476Y-91711596D01*
X100845933Y-91316734D01*
X100729064Y-90931473D01*
X100574997Y-90559522D01*
X100518669Y-90454141D01*
X100385219Y-90204474D01*
X100385218Y-90204472D01*
X100385213Y-90204463D01*
X100161542Y-89869716D01*
X99906137Y-89558504D01*
X99906136Y-89558503D01*
X99906132Y-89558498D01*
X99621462Y-89273829D01*
X99310250Y-89018424D01*
X99310249Y-89018423D01*
X99310245Y-89018420D01*
X98975498Y-88794749D01*
X98975493Y-88794746D01*
X98975486Y-88794742D01*
X98620446Y-88604969D01*
X98620441Y-88604967D01*
X98603150Y-88597805D01*
X98465661Y-88540855D01*
X98248488Y-88450899D01*
X97863216Y-88334028D01*
X97863205Y-88334025D01*
X97468360Y-88255488D01*
X97199022Y-88228960D01*
X97067706Y-88216027D01*
X97067703Y-88216027D01*
X96665111Y-88216027D01*
X96665108Y-88216027D01*
X96546725Y-88227686D01*
X96264453Y-88255488D01*
X95869608Y-88334025D01*
X95869597Y-88334028D01*
X95484325Y-88450899D01*
X95112372Y-88604967D01*
X95112367Y-88604969D01*
X94757327Y-88794742D01*
X94757309Y-88794753D01*
X94422577Y-89018414D01*
X94422563Y-89018424D01*
X94111351Y-89273829D01*
X93826681Y-89558498D01*
X93571276Y-89869710D01*
X93571266Y-89869724D01*
X93347605Y-90204456D01*
X93347594Y-90204474D01*
X93157820Y-90559514D01*
X93157818Y-90559519D01*
X93003750Y-90931471D01*
X92886880Y-91316737D01*
X92886879Y-91316742D01*
X92808339Y-91711589D01*
X92808336Y-91711606D01*
X92768876Y-92112251D01*
X92768629Y-92132383D01*
X92766480Y-92307654D01*
X92766407Y-92313580D01*
X92766407Y-92732953D01*
X92766382Y-92735423D01*
X92764140Y-92847937D01*
X92762512Y-92865648D01*
X92725683Y-93088928D01*
X92720767Y-93108572D01*
X92648486Y-93321706D01*
X92640437Y-93340289D01*
X92534432Y-93538808D01*
X92523468Y-93555832D01*
X92386564Y-93734453D01*
X92372973Y-93749466D01*
X92208820Y-93903422D01*
X92192967Y-93916023D01*
X92005950Y-94041203D01*
X91988259Y-94051055D01*
X91783347Y-94144134D01*
X91764287Y-94150976D01*
X91546970Y-94209458D01*
X91527050Y-94213106D01*
X91301838Y-94235562D01*
X91284129Y-94236056D01*
X91171839Y-94231156D01*
X91168965Y-94230997D01*
X90180055Y-94164812D01*
X90177638Y-94164627D01*
X88199991Y-93993381D01*
X88197235Y-93993111D01*
X86224143Y-93777771D01*
X86221393Y-93777440D01*
X84253540Y-93518086D01*
X84250799Y-93517693D01*
X82289317Y-93214473D01*
X82286585Y-93214020D01*
X80332120Y-92867032D01*
X80329737Y-92866585D01*
X79357212Y-92674239D01*
X79354756Y-92673727D01*
X79229225Y-92646249D01*
X79214143Y-92641932D01*
X78970689Y-92555239D01*
X78954347Y-92548055D01*
X78726836Y-92427817D01*
X78711695Y-92418362D01*
X78503800Y-92266699D01*
X78490180Y-92255174D01*
X78306209Y-92075222D01*
X78294386Y-92061861D01*
X78138165Y-91857367D01*
X78128377Y-91842438D01*
X78063027Y-91725134D01*
X78003137Y-91617629D01*
X77995596Y-91601452D01*
X77993006Y-91594657D01*
X77903933Y-91360990D01*
X77898794Y-91343901D01*
X77892716Y-91316734D01*
X77842609Y-91092774D01*
X77839978Y-91075134D01*
X77820431Y-90818521D01*
X77820361Y-90800688D01*
X77837864Y-90543929D01*
X77840356Y-90526264D01*
X77894540Y-90274697D01*
X77899544Y-90257567D01*
X77919300Y-90204474D01*
X77989293Y-90016375D01*
X77996702Y-90000149D01*
X78120681Y-89773378D01*
X78129031Y-89760163D01*
X78205180Y-89655035D01*
X78312142Y-89508875D01*
X78498647Y-89198376D01*
X78652087Y-88870276D01*
X78770821Y-88528083D01*
X78853579Y-88175457D01*
X78885846Y-87922870D01*
X80569500Y-87922870D01*
X80569501Y-87922876D01*
X80575908Y-87982483D01*
X80626202Y-88117328D01*
X80626206Y-88117335D01*
X80712452Y-88232544D01*
X80712455Y-88232547D01*
X80827664Y-88318793D01*
X80827671Y-88318797D01*
X80962513Y-88369090D01*
X80962514Y-88369090D01*
X80962517Y-88369091D01*
X80998353Y-88372944D01*
X81062901Y-88399679D01*
X81102751Y-88457070D01*
X81105246Y-88526896D01*
X81069595Y-88586985D01*
X81056223Y-88597805D01*
X81031182Y-88615339D01*
X80870342Y-88776179D01*
X80739865Y-88962517D01*
X80643734Y-89168673D01*
X80643730Y-89168682D01*
X80591127Y-89364999D01*
X80591128Y-89365000D01*
X81554314Y-89365000D01*
X81549920Y-89369394D01*
X81497259Y-89460606D01*
X81470000Y-89562339D01*
X81470000Y-89667661D01*
X81497259Y-89769394D01*
X81549920Y-89860606D01*
X81554314Y-89865000D01*
X80591128Y-89865000D01*
X80643730Y-90061317D01*
X80643734Y-90061326D01*
X80739865Y-90267482D01*
X80870342Y-90453820D01*
X81031179Y-90614657D01*
X81217517Y-90745134D01*
X81423673Y-90841265D01*
X81423682Y-90841269D01*
X81619999Y-90893872D01*
X81620000Y-90893871D01*
X81620000Y-89930686D01*
X81624394Y-89935080D01*
X81715606Y-89987741D01*
X81817339Y-90015000D01*
X81922661Y-90015000D01*
X82024394Y-89987741D01*
X82115606Y-89935080D01*
X82120000Y-89930686D01*
X82120000Y-90893872D01*
X82316317Y-90841269D01*
X82316326Y-90841265D01*
X82522482Y-90745134D01*
X82708820Y-90614657D01*
X82869657Y-90453820D01*
X83000134Y-90267482D01*
X83096265Y-90061326D01*
X83096269Y-90061317D01*
X83148872Y-89865000D01*
X82185686Y-89865000D01*
X82190080Y-89860606D01*
X82242741Y-89769394D01*
X82270000Y-89667661D01*
X82270000Y-89615001D01*
X88184532Y-89615001D01*
X88204364Y-89841686D01*
X88204366Y-89841697D01*
X88263258Y-90061488D01*
X88263261Y-90061497D01*
X88359431Y-90267732D01*
X88359432Y-90267734D01*
X88489954Y-90454141D01*
X88650858Y-90615045D01*
X88650861Y-90615047D01*
X88837266Y-90745568D01*
X89043504Y-90841739D01*
X89263308Y-90900635D01*
X89425230Y-90914801D01*
X89489998Y-90920468D01*
X89490000Y-90920468D01*
X89490002Y-90920468D01*
X89551585Y-90915080D01*
X89716692Y-90900635D01*
X89936496Y-90841739D01*
X90142734Y-90745568D01*
X90329139Y-90615047D01*
X90490047Y-90454139D01*
X90620568Y-90267734D01*
X90716739Y-90061496D01*
X90775635Y-89841692D01*
X90795468Y-89615000D01*
X90775635Y-89388308D01*
X90724745Y-89198383D01*
X90716741Y-89168511D01*
X90716738Y-89168502D01*
X90620568Y-88962266D01*
X90503270Y-88794746D01*
X90490045Y-88775858D01*
X90329141Y-88614954D01*
X90142734Y-88484432D01*
X90142728Y-88484429D01*
X90084725Y-88457382D01*
X90032285Y-88411210D01*
X90013133Y-88344017D01*
X90033348Y-88277135D01*
X90084725Y-88232618D01*
X90142734Y-88205568D01*
X90329139Y-88075047D01*
X90490047Y-87914139D01*
X90620568Y-87727734D01*
X90716739Y-87521496D01*
X90775635Y-87301692D01*
X90795468Y-87075000D01*
X90775635Y-86848308D01*
X90716739Y-86628504D01*
X90620568Y-86422266D01*
X90490047Y-86235861D01*
X90490045Y-86235858D01*
X90329141Y-86074954D01*
X90142734Y-85944432D01*
X90142732Y-85944431D01*
X89936497Y-85848261D01*
X89936488Y-85848258D01*
X89716697Y-85789366D01*
X89716693Y-85789365D01*
X89716692Y-85789365D01*
X89716691Y-85789364D01*
X89716686Y-85789364D01*
X89490002Y-85769532D01*
X89489998Y-85769532D01*
X89263313Y-85789364D01*
X89263302Y-85789366D01*
X89043511Y-85848258D01*
X89043502Y-85848261D01*
X88837267Y-85944431D01*
X88837265Y-85944432D01*
X88650858Y-86074954D01*
X88489954Y-86235858D01*
X88359432Y-86422265D01*
X88359431Y-86422267D01*
X88263261Y-86628502D01*
X88263258Y-86628511D01*
X88204366Y-86848302D01*
X88204364Y-86848313D01*
X88184532Y-87074998D01*
X88184532Y-87075001D01*
X88204364Y-87301686D01*
X88204366Y-87301697D01*
X88263258Y-87521488D01*
X88263261Y-87521497D01*
X88359431Y-87727732D01*
X88359432Y-87727734D01*
X88489954Y-87914141D01*
X88650858Y-88075045D01*
X88650861Y-88075047D01*
X88837266Y-88205568D01*
X88895275Y-88232618D01*
X88947714Y-88278791D01*
X88966866Y-88345984D01*
X88946650Y-88412865D01*
X88895275Y-88457382D01*
X88837267Y-88484431D01*
X88837265Y-88484432D01*
X88650858Y-88614954D01*
X88489954Y-88775858D01*
X88359432Y-88962265D01*
X88359431Y-88962267D01*
X88263261Y-89168502D01*
X88263258Y-89168511D01*
X88204366Y-89388302D01*
X88204364Y-89388313D01*
X88184532Y-89614998D01*
X88184532Y-89615001D01*
X82270000Y-89615001D01*
X82270000Y-89562339D01*
X82242741Y-89460606D01*
X82190080Y-89369394D01*
X82185686Y-89365000D01*
X83148872Y-89365000D01*
X83148872Y-89364999D01*
X83096269Y-89168682D01*
X83096265Y-89168673D01*
X83000134Y-88962517D01*
X82869657Y-88776179D01*
X82708820Y-88615342D01*
X82683779Y-88597808D01*
X82640154Y-88543230D01*
X82632962Y-88473732D01*
X82664484Y-88411377D01*
X82724714Y-88375964D01*
X82741650Y-88372943D01*
X82777483Y-88369091D01*
X82912328Y-88318797D01*
X82912327Y-88318797D01*
X82912331Y-88318796D01*
X83027546Y-88232546D01*
X83113796Y-88117331D01*
X83164091Y-87982483D01*
X83170500Y-87922873D01*
X83170499Y-86227128D01*
X83164091Y-86167517D01*
X83129567Y-86074954D01*
X83113797Y-86032671D01*
X83113793Y-86032664D01*
X83027547Y-85917455D01*
X83027544Y-85917452D01*
X82912335Y-85831206D01*
X82912328Y-85831202D01*
X82777482Y-85780908D01*
X82777483Y-85780908D01*
X82717883Y-85774501D01*
X82717881Y-85774500D01*
X82717873Y-85774500D01*
X82717864Y-85774500D01*
X81022129Y-85774500D01*
X81022123Y-85774501D01*
X80962516Y-85780908D01*
X80827671Y-85831202D01*
X80827664Y-85831206D01*
X80712455Y-85917452D01*
X80712452Y-85917455D01*
X80626206Y-86032664D01*
X80626202Y-86032671D01*
X80575908Y-86167517D01*
X80569536Y-86226793D01*
X80569501Y-86227123D01*
X80569500Y-86227135D01*
X80569500Y-87922870D01*
X78885846Y-87922870D01*
X78899476Y-87816170D01*
X78908021Y-87454065D01*
X78879123Y-87093012D01*
X78813091Y-86736876D01*
X78810994Y-86729767D01*
X78728733Y-86450846D01*
X78710630Y-86389463D01*
X78572838Y-86054490D01*
X78572830Y-86054476D01*
X78419480Y-85769532D01*
X78401186Y-85735540D01*
X78197512Y-85436022D01*
X77963994Y-85159142D01*
X77703129Y-84907859D01*
X77561828Y-84794555D01*
X77538410Y-84776259D01*
X73127400Y-81330000D01*
X82061468Y-81330000D01*
X82083265Y-81467628D01*
X82153917Y-81685070D01*
X82257711Y-81888776D01*
X82392097Y-82073742D01*
X82553757Y-82235402D01*
X82738723Y-82369788D01*
X82942429Y-82473582D01*
X83159871Y-82544234D01*
X83250000Y-82558509D01*
X83250000Y-81570747D01*
X83287708Y-81592518D01*
X83427591Y-81630000D01*
X83572409Y-81630000D01*
X83712292Y-81592518D01*
X83750000Y-81570747D01*
X83750000Y-82558508D01*
X83840128Y-82544234D01*
X84057570Y-82473582D01*
X84261276Y-82369788D01*
X84446242Y-82235402D01*
X84607905Y-82073739D01*
X84669371Y-81989137D01*
X84724701Y-81946470D01*
X84794314Y-81940491D01*
X84856109Y-81973096D01*
X84870007Y-81989134D01*
X84931714Y-82074066D01*
X85093434Y-82235786D01*
X85278462Y-82370217D01*
X85410599Y-82437544D01*
X85482244Y-82474049D01*
X85699751Y-82544721D01*
X85699752Y-82544721D01*
X85699755Y-82544722D01*
X85925646Y-82580500D01*
X85925647Y-82580500D01*
X86154353Y-82580500D01*
X86154354Y-82580500D01*
X86380245Y-82544722D01*
X86380248Y-82544721D01*
X86380249Y-82544721D01*
X86597755Y-82474049D01*
X86597755Y-82474048D01*
X86597758Y-82474048D01*
X86801538Y-82370217D01*
X86984245Y-82237472D01*
X87050046Y-82213994D01*
X87118100Y-82229819D01*
X87166795Y-82279924D01*
X87173308Y-82294459D01*
X87183702Y-82322328D01*
X87183706Y-82322335D01*
X87269952Y-82437544D01*
X87269955Y-82437547D01*
X87385164Y-82523793D01*
X87385171Y-82523797D01*
X87520017Y-82574091D01*
X87520016Y-82574091D01*
X87526944Y-82574835D01*
X87579627Y-82580500D01*
X89580372Y-82580499D01*
X89639983Y-82574091D01*
X89774831Y-82523796D01*
X89890046Y-82437546D01*
X89976296Y-82322331D01*
X90026591Y-82187483D01*
X90033000Y-82127873D01*
X90032999Y-80970001D01*
X92929500Y-80970001D01*
X92929501Y-80970019D01*
X92940000Y-81072796D01*
X92940001Y-81072799D01*
X92995185Y-81239331D01*
X92995187Y-81239336D01*
X93026426Y-81289983D01*
X93087288Y-81388656D01*
X93211344Y-81512712D01*
X93360666Y-81604814D01*
X93527203Y-81659999D01*
X93629991Y-81670500D01*
X94630008Y-81670499D01*
X94630016Y-81670498D01*
X94630019Y-81670498D01*
X94686302Y-81664748D01*
X94732797Y-81659999D01*
X94887492Y-81608737D01*
X94957315Y-81606336D01*
X95014173Y-81638763D01*
X97196715Y-83821306D01*
X97230200Y-83882629D01*
X97225216Y-83952321D01*
X97183344Y-84008254D01*
X97117880Y-84032671D01*
X97089637Y-84031460D01*
X96992143Y-84016019D01*
X96992136Y-84016019D01*
X96740678Y-84016019D01*
X96740673Y-84016019D01*
X96492316Y-84055354D01*
X96253162Y-84133061D01*
X96029113Y-84247221D01*
X95825689Y-84395016D01*
X95825684Y-84395020D01*
X95647874Y-84572830D01*
X95647870Y-84572835D01*
X95500075Y-84776259D01*
X95385915Y-85000308D01*
X95308208Y-85239462D01*
X95268873Y-85487818D01*
X95268873Y-85739287D01*
X95308208Y-85987643D01*
X95385915Y-86226797D01*
X95464422Y-86380875D01*
X95468802Y-86389471D01*
X95500075Y-86450846D01*
X95647870Y-86654270D01*
X95647874Y-86654275D01*
X95825684Y-86832085D01*
X95825689Y-86832089D01*
X96003127Y-86961004D01*
X96029117Y-86979887D01*
X96171881Y-87052629D01*
X96253162Y-87094044D01*
X96253164Y-87094044D01*
X96253167Y-87094046D01*
X96381356Y-87135697D01*
X96492316Y-87171751D01*
X96740673Y-87211087D01*
X96992136Y-87211087D01*
X96992141Y-87211087D01*
X97240497Y-87171751D01*
X97479647Y-87094046D01*
X97703697Y-86979887D01*
X97907131Y-86832084D01*
X98084938Y-86654277D01*
X98232741Y-86450843D01*
X98346900Y-86226793D01*
X98424605Y-85987643D01*
X98463941Y-85739282D01*
X98466407Y-85613553D01*
X98463941Y-85487824D01*
X98448498Y-85390320D01*
X98457453Y-85321028D01*
X98502449Y-85267576D01*
X98569200Y-85246936D01*
X98636514Y-85265661D01*
X98658649Y-85283239D01*
X99542925Y-86167516D01*
X101916263Y-88540855D01*
X101916267Y-88540858D01*
X102018710Y-88609309D01*
X102018711Y-88609309D01*
X102018715Y-88609312D01*
X102085396Y-88636931D01*
X102085398Y-88636933D01*
X102132543Y-88656461D01*
X102132548Y-88656463D01*
X102152597Y-88660451D01*
X102186196Y-88667134D01*
X102253392Y-88680501D01*
X102253394Y-88680501D01*
X102382721Y-88680501D01*
X102382741Y-88680500D01*
X102795501Y-88680500D01*
X102862540Y-88700185D01*
X102908295Y-88752989D01*
X102919501Y-88804500D01*
X102919501Y-88902876D01*
X102925908Y-88962483D01*
X102976202Y-89097328D01*
X102976206Y-89097335D01*
X103062452Y-89212544D01*
X103062455Y-89212547D01*
X103177664Y-89298793D01*
X103177671Y-89298797D01*
X103312513Y-89349090D01*
X103312514Y-89349090D01*
X103312517Y-89349091D01*
X103348353Y-89352944D01*
X103412901Y-89379679D01*
X103452751Y-89437070D01*
X103455246Y-89506896D01*
X103419595Y-89566985D01*
X103406223Y-89577805D01*
X103381182Y-89595339D01*
X103220342Y-89756179D01*
X103089865Y-89942517D01*
X102993734Y-90148673D01*
X102993730Y-90148682D01*
X102941127Y-90344999D01*
X102941128Y-90345000D01*
X103904314Y-90345000D01*
X103899920Y-90349394D01*
X103847259Y-90440606D01*
X103820000Y-90542339D01*
X103820000Y-90647661D01*
X103847259Y-90749394D01*
X103899920Y-90840606D01*
X103904314Y-90845000D01*
X102941128Y-90845000D01*
X102993730Y-91041317D01*
X102993734Y-91041326D01*
X103089865Y-91247482D01*
X103220342Y-91433820D01*
X103381179Y-91594657D01*
X103567517Y-91725134D01*
X103773673Y-91821265D01*
X103773682Y-91821269D01*
X103969999Y-91873872D01*
X103970000Y-91873871D01*
X103970000Y-90910686D01*
X103974394Y-90915080D01*
X104065606Y-90967741D01*
X104167339Y-90995000D01*
X104272661Y-90995000D01*
X104374394Y-90967741D01*
X104465606Y-90915080D01*
X104470000Y-90910686D01*
X104470000Y-91873872D01*
X104666317Y-91821269D01*
X104666326Y-91821265D01*
X104872482Y-91725134D01*
X105058820Y-91594657D01*
X105219657Y-91433820D01*
X105350134Y-91247482D01*
X105446265Y-91041326D01*
X105446269Y-91041317D01*
X105498872Y-90845000D01*
X104535686Y-90845000D01*
X104540080Y-90840606D01*
X104592741Y-90749394D01*
X104620000Y-90647661D01*
X104620000Y-90542339D01*
X104592741Y-90440606D01*
X104540080Y-90349394D01*
X104535686Y-90345000D01*
X105498872Y-90345000D01*
X105498872Y-90344999D01*
X105446269Y-90148682D01*
X105446265Y-90148673D01*
X105350134Y-89942517D01*
X105219657Y-89756179D01*
X105058820Y-89595342D01*
X105033779Y-89577808D01*
X104990154Y-89523230D01*
X104982962Y-89453732D01*
X105014484Y-89391377D01*
X105074714Y-89355964D01*
X105091650Y-89352943D01*
X105127483Y-89349091D01*
X105262328Y-89298797D01*
X105262327Y-89298797D01*
X105262331Y-89298796D01*
X105377546Y-89212546D01*
X105463796Y-89097331D01*
X105514091Y-88962483D01*
X105520500Y-88902873D01*
X105520499Y-88254449D01*
X105540183Y-88187412D01*
X105592987Y-88141657D01*
X105662146Y-88131713D01*
X105725702Y-88160738D01*
X105732180Y-88166770D01*
X109681016Y-92115606D01*
X109681045Y-92115637D01*
X109771264Y-92205856D01*
X109771267Y-92205858D01*
X109848190Y-92257256D01*
X109873710Y-92274309D01*
X109873712Y-92274310D01*
X109873715Y-92274312D01*
X109940396Y-92301931D01*
X109940398Y-92301933D01*
X109968452Y-92313553D01*
X109987548Y-92321463D01*
X110047971Y-92333481D01*
X110108393Y-92345500D01*
X112367598Y-92345500D01*
X112428020Y-92333481D01*
X112488443Y-92321463D01*
X112488446Y-92321461D01*
X112488449Y-92321461D01*
X112521778Y-92307654D01*
X112521777Y-92307654D01*
X112521783Y-92307652D01*
X112602277Y-92274312D01*
X112653500Y-92240084D01*
X112704724Y-92205858D01*
X112791849Y-92118733D01*
X112791850Y-92118730D01*
X113450857Y-91459725D01*
X113519311Y-91357277D01*
X113566463Y-91243443D01*
X113590500Y-91122598D01*
X113590500Y-90999385D01*
X113590500Y-85730451D01*
X113610185Y-85663412D01*
X113626814Y-85642775D01*
X121633729Y-77635860D01*
X121633733Y-77635858D01*
X121720858Y-77548733D01*
X121789311Y-77446286D01*
X121836463Y-77332452D01*
X121860500Y-77211606D01*
X121860500Y-72463394D01*
X121836463Y-72342548D01*
X121811017Y-72281116D01*
X121789312Y-72228714D01*
X121755084Y-72177490D01*
X121720858Y-72126267D01*
X121720856Y-72126264D01*
X121630637Y-72036045D01*
X121630606Y-72036016D01*
X120996818Y-71402228D01*
X120963333Y-71340905D01*
X120960499Y-71314547D01*
X120960499Y-70002129D01*
X120960498Y-70002123D01*
X120960497Y-70002116D01*
X120954091Y-69942517D01*
X120903796Y-69807669D01*
X120903795Y-69807668D01*
X120903793Y-69807664D01*
X120817547Y-69692455D01*
X120817544Y-69692452D01*
X120702335Y-69606206D01*
X120702328Y-69606202D01*
X120567482Y-69555908D01*
X120567483Y-69555908D01*
X120507883Y-69549501D01*
X120507881Y-69549500D01*
X120507873Y-69549500D01*
X120507864Y-69549500D01*
X118712129Y-69549500D01*
X118712123Y-69549501D01*
X118652516Y-69555908D01*
X118517671Y-69606202D01*
X118517664Y-69606206D01*
X118402455Y-69692452D01*
X118402452Y-69692455D01*
X118316206Y-69807664D01*
X118316202Y-69807671D01*
X118265908Y-69942517D01*
X118259501Y-70002116D01*
X118259501Y-70002123D01*
X118259500Y-70002135D01*
X118259500Y-71797870D01*
X118259501Y-71797876D01*
X118265908Y-71857483D01*
X118316202Y-71992328D01*
X118316203Y-71992330D01*
X118324217Y-72003035D01*
X118348633Y-72068500D01*
X118333781Y-72136772D01*
X118284375Y-72186178D01*
X118244348Y-72199818D01*
X118115091Y-72220291D01*
X117927888Y-72281117D01*
X117752513Y-72370476D01*
X117706299Y-72404053D01*
X117593273Y-72486172D01*
X117593271Y-72486174D01*
X117593270Y-72486174D01*
X116856174Y-73223270D01*
X116856174Y-73223271D01*
X116856172Y-73223273D01*
X116806485Y-73291660D01*
X116740476Y-73382513D01*
X116650669Y-73558770D01*
X116649608Y-73562531D01*
X116590291Y-73745088D01*
X116590291Y-73745091D01*
X116559500Y-73939496D01*
X116559500Y-77058163D01*
X116539815Y-77125202D01*
X116523181Y-77145844D01*
X112624680Y-81044345D01*
X112563357Y-81077830D01*
X112493665Y-81072846D01*
X112437732Y-81030974D01*
X112413315Y-80965510D01*
X112412999Y-80956664D01*
X112412999Y-79577129D01*
X112412998Y-79577123D01*
X112412232Y-79570000D01*
X112407799Y-79528757D01*
X112406591Y-79517516D01*
X112356297Y-79382671D01*
X112356293Y-79382664D01*
X112270047Y-79267455D01*
X112270044Y-79267452D01*
X112154835Y-79181206D01*
X112154828Y-79181202D01*
X112019982Y-79130908D01*
X112019983Y-79130908D01*
X111960383Y-79124501D01*
X111960381Y-79124500D01*
X111960373Y-79124500D01*
X111960364Y-79124500D01*
X109959629Y-79124500D01*
X109959623Y-79124501D01*
X109900014Y-79130909D01*
X109837832Y-79154101D01*
X109768140Y-79159085D01*
X109706817Y-79125599D01*
X109673333Y-79064275D01*
X109670500Y-79037919D01*
X109670500Y-78791577D01*
X109639709Y-78597177D01*
X109639709Y-78597174D01*
X109632131Y-78573853D01*
X109625101Y-78552215D01*
X109578885Y-78409976D01*
X109578884Y-78409973D01*
X109489523Y-78234594D01*
X109479404Y-78220666D01*
X109373828Y-78075354D01*
X103755586Y-72457112D01*
X105721640Y-72457112D01*
X105740680Y-72711187D01*
X105797375Y-72959585D01*
X105797380Y-72959602D01*
X105890465Y-73196779D01*
X105890464Y-73196779D01*
X106017861Y-73417435D01*
X106017868Y-73417446D01*
X106059859Y-73470099D01*
X106059860Y-73470100D01*
X106861794Y-72668166D01*
X106867296Y-72688699D01*
X106946288Y-72825516D01*
X107057999Y-72937227D01*
X107194816Y-73016219D01*
X107215347Y-73021720D01*
X106413220Y-73823846D01*
X106574023Y-73933479D01*
X106574031Y-73933484D01*
X106803583Y-74044029D01*
X106803581Y-74044029D01*
X107047059Y-74119132D01*
X107047065Y-74119134D01*
X107299002Y-74157107D01*
X107299011Y-74157108D01*
X107553803Y-74157108D01*
X107553811Y-74157107D01*
X107805748Y-74119134D01*
X107805754Y-74119132D01*
X108049231Y-74044029D01*
X108278783Y-73933484D01*
X108278784Y-73933483D01*
X108439592Y-73823846D01*
X107637467Y-73021720D01*
X107657998Y-73016219D01*
X107794815Y-72937227D01*
X107906526Y-72825516D01*
X107985518Y-72688699D01*
X107991019Y-72668167D01*
X108792952Y-73470100D01*
X108792953Y-73470099D01*
X108834951Y-73417438D01*
X108962348Y-73196779D01*
X109055433Y-72959602D01*
X109055438Y-72959585D01*
X109112133Y-72711187D01*
X109131174Y-72457112D01*
X109131174Y-72457103D01*
X109112133Y-72203028D01*
X109055438Y-71954630D01*
X109055433Y-71954613D01*
X108962348Y-71717436D01*
X108962349Y-71717436D01*
X108834952Y-71496780D01*
X108792952Y-71444114D01*
X107991019Y-72246047D01*
X107985518Y-72225517D01*
X107906526Y-72088700D01*
X107794815Y-71976989D01*
X107657998Y-71897997D01*
X107637466Y-71892495D01*
X108439592Y-71090368D01*
X108278791Y-70980736D01*
X108278783Y-70980731D01*
X108049230Y-70870186D01*
X108049232Y-70870186D01*
X107805754Y-70795083D01*
X107805748Y-70795081D01*
X107553811Y-70757108D01*
X107299002Y-70757108D01*
X107047065Y-70795081D01*
X107047059Y-70795083D01*
X106803582Y-70870186D01*
X106574029Y-70980733D01*
X106574016Y-70980740D01*
X106413220Y-71090367D01*
X107215348Y-71892495D01*
X107194816Y-71897997D01*
X107057999Y-71976989D01*
X106946288Y-72088700D01*
X106867296Y-72225517D01*
X106861794Y-72246049D01*
X106059859Y-71444114D01*
X106017864Y-71496775D01*
X105890465Y-71717436D01*
X105797380Y-71954613D01*
X105797375Y-71954630D01*
X105740680Y-72203028D01*
X105721640Y-72457103D01*
X105721640Y-72457112D01*
X103755586Y-72457112D01*
X95986819Y-64688345D01*
X95953334Y-64627022D01*
X95950500Y-64600664D01*
X95950500Y-56081289D01*
X95970185Y-56014250D01*
X95970691Y-56013468D01*
X95991715Y-55981286D01*
X96024173Y-55931607D01*
X96124063Y-55703881D01*
X96185108Y-55462821D01*
X96205643Y-55215000D01*
X96186447Y-54983344D01*
X96185109Y-54967187D01*
X96185107Y-54967175D01*
X96124063Y-54726118D01*
X96024173Y-54498393D01*
X95888166Y-54290217D01*
X95866557Y-54266744D01*
X95719744Y-54107262D01*
X95523509Y-53954526D01*
X95523507Y-53954525D01*
X95523506Y-53954524D01*
X95304811Y-53836172D01*
X95304802Y-53836169D01*
X95069616Y-53755429D01*
X94824335Y-53714500D01*
X94575665Y-53714500D01*
X94330383Y-53755429D01*
X94095197Y-53836169D01*
X94095188Y-53836172D01*
X93876493Y-53954524D01*
X93680257Y-54107261D01*
X93511833Y-54290217D01*
X93375826Y-54498393D01*
X93275936Y-54726118D01*
X93214892Y-54967175D01*
X93214890Y-54967187D01*
X93194357Y-55214994D01*
X93194357Y-55215005D01*
X93214890Y-55462812D01*
X93214892Y-55462824D01*
X93275936Y-55703881D01*
X93375826Y-55931606D01*
X93429309Y-56013468D01*
X93449496Y-56080357D01*
X93449500Y-56081289D01*
X93449500Y-65268422D01*
X93480290Y-65462826D01*
X93541117Y-65650030D01*
X93630476Y-65825405D01*
X93746172Y-65984646D01*
X93746174Y-65984648D01*
X107133181Y-79371655D01*
X107166666Y-79432978D01*
X107169500Y-79459336D01*
X107169500Y-79512786D01*
X107149815Y-79579825D01*
X107097011Y-79625580D01*
X107027853Y-79635524D01*
X106964297Y-79606499D01*
X106957819Y-79600467D01*
X106826568Y-79469216D01*
X106826566Y-79469214D01*
X106641538Y-79334783D01*
X106437755Y-79230950D01*
X106220248Y-79160278D01*
X106034812Y-79130908D01*
X105994354Y-79124500D01*
X105765646Y-79124500D01*
X105725188Y-79130908D01*
X105539753Y-79160278D01*
X105539750Y-79160278D01*
X105322244Y-79230950D01*
X105118461Y-79334783D01*
X105052550Y-79382671D01*
X104933434Y-79469214D01*
X104933432Y-79469216D01*
X104933431Y-79469216D01*
X104771716Y-79630931D01*
X104771716Y-79630932D01*
X104771714Y-79630934D01*
X104731741Y-79685952D01*
X104637283Y-79815961D01*
X104533450Y-80019744D01*
X104462778Y-80237250D01*
X104462778Y-80237253D01*
X104427000Y-80463146D01*
X104427000Y-80649164D01*
X104407315Y-80716203D01*
X104354511Y-80761958D01*
X104285353Y-80771902D01*
X104221797Y-80742877D01*
X104215319Y-80736845D01*
X101414648Y-77936174D01*
X101414646Y-77936172D01*
X101255405Y-77820476D01*
X101244124Y-77814728D01*
X101080030Y-77731117D01*
X100892826Y-77670290D01*
X100698422Y-77639500D01*
X100698417Y-77639500D01*
X99371583Y-77639500D01*
X99371578Y-77639500D01*
X99177173Y-77670290D01*
X98989974Y-77731116D01*
X98989967Y-77731119D01*
X98840046Y-77807507D01*
X98822757Y-77814728D01*
X98700666Y-77855186D01*
X98551342Y-77947289D01*
X98427289Y-78071342D01*
X98335187Y-78220663D01*
X98335185Y-78220668D01*
X98330570Y-78234595D01*
X98280001Y-78387203D01*
X98280001Y-78387204D01*
X98280000Y-78387204D01*
X98269500Y-78489983D01*
X98269500Y-78518414D01*
X98263431Y-78556732D01*
X98250291Y-78597172D01*
X98219500Y-78791577D01*
X98219500Y-78988422D01*
X98250291Y-79182826D01*
X98250291Y-79182829D01*
X98263431Y-79223268D01*
X98269500Y-79261582D01*
X98269500Y-79290000D01*
X98269501Y-79290018D01*
X98280001Y-79392797D01*
X98280001Y-79392799D01*
X98319737Y-79512712D01*
X98335186Y-79559334D01*
X98408683Y-79678493D01*
X98427289Y-79708657D01*
X98521304Y-79802672D01*
X98554789Y-79863995D01*
X98549805Y-79933687D01*
X98521305Y-79978034D01*
X98427682Y-80071657D01*
X98335643Y-80220875D01*
X98335640Y-80220883D01*
X98331605Y-80233059D01*
X98291830Y-80290502D01*
X98227312Y-80317322D01*
X98158537Y-80305003D01*
X98126220Y-80281730D01*
X97361819Y-79517329D01*
X97328334Y-79456006D01*
X97325500Y-79429648D01*
X97325500Y-78718687D01*
X97345185Y-78651648D01*
X97357350Y-78635715D01*
X97375891Y-78615122D01*
X97432533Y-78552216D01*
X97527179Y-78388284D01*
X97585674Y-78208256D01*
X97605460Y-78020000D01*
X97585674Y-77831744D01*
X97527179Y-77651716D01*
X97432533Y-77487784D01*
X97305871Y-77347112D01*
X97285696Y-77332454D01*
X97152734Y-77235851D01*
X97152729Y-77235848D01*
X96979807Y-77158857D01*
X96979802Y-77158855D01*
X96821472Y-77125202D01*
X96794646Y-77119500D01*
X96605354Y-77119500D01*
X96578528Y-77125202D01*
X96420197Y-77158855D01*
X96420192Y-77158857D01*
X96247270Y-77235848D01*
X96247265Y-77235851D01*
X96094129Y-77347111D01*
X95967466Y-77487785D01*
X95872821Y-77651715D01*
X95872818Y-77651722D01*
X95814326Y-77831742D01*
X95814325Y-77831745D01*
X95814145Y-77833465D01*
X95813763Y-77834392D01*
X95812976Y-77838097D01*
X95812298Y-77837952D01*
X95787559Y-77898079D01*
X95730261Y-77938062D01*
X95690825Y-77944500D01*
X95361058Y-77944500D01*
X95294019Y-77924815D01*
X95255519Y-77885597D01*
X95172712Y-77751344D01*
X95048656Y-77627288D01*
X94955888Y-77570069D01*
X94899336Y-77535187D01*
X94899331Y-77535185D01*
X94844932Y-77517159D01*
X94732797Y-77480001D01*
X94732795Y-77480000D01*
X94630010Y-77469500D01*
X93629998Y-77469500D01*
X93629980Y-77469501D01*
X93527203Y-77480000D01*
X93527200Y-77480001D01*
X93360668Y-77535185D01*
X93360663Y-77535187D01*
X93211342Y-77627289D01*
X93087289Y-77751342D01*
X92995187Y-77900663D01*
X92995185Y-77900668D01*
X92967349Y-77984670D01*
X92940001Y-78067203D01*
X92940001Y-78067204D01*
X92940000Y-78067204D01*
X92929500Y-78169983D01*
X92929500Y-78970001D01*
X92929501Y-78970019D01*
X92940000Y-79072796D01*
X92940001Y-79072799D01*
X92995185Y-79239331D01*
X92995187Y-79239336D01*
X93012529Y-79267452D01*
X93083596Y-79382671D01*
X93087289Y-79388657D01*
X93180951Y-79482319D01*
X93214436Y-79543642D01*
X93209452Y-79613334D01*
X93180951Y-79657681D01*
X93087289Y-79751342D01*
X92995187Y-79900663D01*
X92995185Y-79900668D01*
X92940001Y-80067203D01*
X92929500Y-80169983D01*
X92929500Y-80970001D01*
X90032999Y-80970001D01*
X90032999Y-80032128D01*
X90026591Y-79972517D01*
X90024990Y-79968225D01*
X89976297Y-79837671D01*
X89976293Y-79837664D01*
X89890047Y-79722455D01*
X89890044Y-79722452D01*
X89774835Y-79636206D01*
X89774828Y-79636202D01*
X89639982Y-79585908D01*
X89639983Y-79585908D01*
X89580383Y-79579501D01*
X89580381Y-79579500D01*
X89580373Y-79579500D01*
X89580364Y-79579500D01*
X87579629Y-79579500D01*
X87579623Y-79579501D01*
X87520016Y-79585908D01*
X87385171Y-79636202D01*
X87385164Y-79636206D01*
X87269955Y-79722452D01*
X87269952Y-79722455D01*
X87183706Y-79837664D01*
X87183703Y-79837670D01*
X87173308Y-79865541D01*
X87131436Y-79921474D01*
X87065972Y-79945891D01*
X86997699Y-79931039D01*
X86984250Y-79922531D01*
X86801538Y-79789783D01*
X86726097Y-79751344D01*
X86597755Y-79685950D01*
X86380248Y-79615278D01*
X86194812Y-79585908D01*
X86154354Y-79579500D01*
X85925646Y-79579500D01*
X85885188Y-79585908D01*
X85699753Y-79615278D01*
X85699750Y-79615278D01*
X85482244Y-79685950D01*
X85278461Y-79789783D01*
X85212551Y-79837670D01*
X85093434Y-79924214D01*
X85093432Y-79924216D01*
X85093431Y-79924216D01*
X84931716Y-80085931D01*
X84931709Y-80085940D01*
X84870007Y-80170864D01*
X84814677Y-80213530D01*
X84745063Y-80219508D01*
X84683269Y-80186901D01*
X84669372Y-80170863D01*
X84607907Y-80086263D01*
X84607902Y-80086257D01*
X84446242Y-79924597D01*
X84261276Y-79790211D01*
X84057568Y-79686417D01*
X83840124Y-79615765D01*
X83750000Y-79601490D01*
X83750000Y-80589252D01*
X83712292Y-80567482D01*
X83572409Y-80530000D01*
X83427591Y-80530000D01*
X83287708Y-80567482D01*
X83250000Y-80589252D01*
X83250000Y-79601490D01*
X83249999Y-79601490D01*
X83159875Y-79615765D01*
X82942431Y-79686417D01*
X82738723Y-79790211D01*
X82553757Y-79924597D01*
X82392097Y-80086257D01*
X82257711Y-80271223D01*
X82153917Y-80474929D01*
X82083265Y-80692371D01*
X82061468Y-80830000D01*
X83009252Y-80830000D01*
X82987482Y-80867708D01*
X82950000Y-81007591D01*
X82950000Y-81152409D01*
X82987482Y-81292292D01*
X83009252Y-81330000D01*
X82061468Y-81330000D01*
X73127400Y-81330000D01*
X63421731Y-73747100D01*
X63419959Y-73745690D01*
X63335958Y-73677508D01*
X63323424Y-73665807D01*
X63175156Y-73506808D01*
X63163043Y-73491580D01*
X63042120Y-73312304D01*
X63032539Y-73295368D01*
X62941157Y-73099396D01*
X62934342Y-73081171D01*
X62874734Y-72873291D01*
X62870859Y-72854242D01*
X62844505Y-72639592D01*
X62843658Y-72620172D01*
X62849781Y-72444892D01*
X84771640Y-72444892D01*
X84790680Y-72698967D01*
X84847375Y-72947365D01*
X84847380Y-72947382D01*
X84940465Y-73184559D01*
X84940464Y-73184559D01*
X85067861Y-73405215D01*
X85067868Y-73405226D01*
X85109859Y-73457879D01*
X85109860Y-73457880D01*
X85911794Y-72655946D01*
X85917296Y-72676479D01*
X85996288Y-72813296D01*
X86107999Y-72925007D01*
X86244816Y-73003999D01*
X86265347Y-73009500D01*
X85463220Y-73811626D01*
X85624023Y-73921259D01*
X85624031Y-73921264D01*
X85853583Y-74031809D01*
X85853581Y-74031809D01*
X86097059Y-74106912D01*
X86097065Y-74106914D01*
X86349002Y-74144887D01*
X86349011Y-74144888D01*
X86603803Y-74144888D01*
X86603811Y-74144887D01*
X86855748Y-74106914D01*
X86855754Y-74106912D01*
X87099231Y-74031809D01*
X87328783Y-73921264D01*
X87328784Y-73921263D01*
X87489592Y-73811626D01*
X86687467Y-73009500D01*
X86707998Y-73003999D01*
X86844815Y-72925007D01*
X86956526Y-72813296D01*
X87035518Y-72676479D01*
X87041019Y-72655947D01*
X87842952Y-73457880D01*
X87842953Y-73457879D01*
X87884951Y-73405218D01*
X88012348Y-73184559D01*
X88105433Y-72947382D01*
X88105438Y-72947365D01*
X88162133Y-72698967D01*
X88181174Y-72444892D01*
X88181174Y-72444883D01*
X88162133Y-72190808D01*
X88105438Y-71942410D01*
X88105433Y-71942393D01*
X88012348Y-71705216D01*
X88012349Y-71705216D01*
X87884952Y-71484560D01*
X87842952Y-71431894D01*
X87041019Y-72233827D01*
X87035518Y-72213297D01*
X86956526Y-72076480D01*
X86844815Y-71964769D01*
X86707998Y-71885777D01*
X86687466Y-71880275D01*
X87489592Y-71078148D01*
X87328791Y-70968516D01*
X87328783Y-70968511D01*
X87099230Y-70857966D01*
X87099232Y-70857966D01*
X86855754Y-70782863D01*
X86855748Y-70782861D01*
X86603811Y-70744888D01*
X86349002Y-70744888D01*
X86097065Y-70782861D01*
X86097059Y-70782863D01*
X85853582Y-70857966D01*
X85624029Y-70968513D01*
X85624016Y-70968520D01*
X85463220Y-71078147D01*
X86265348Y-71880275D01*
X86244816Y-71885777D01*
X86107999Y-71964769D01*
X85996288Y-72076480D01*
X85917296Y-72213297D01*
X85911794Y-72233829D01*
X85109859Y-71431894D01*
X85067864Y-71484555D01*
X84940465Y-71705216D01*
X84847380Y-71942393D01*
X84847375Y-71942410D01*
X84790680Y-72190808D01*
X84771640Y-72444883D01*
X84771640Y-72444892D01*
X62849781Y-72444892D01*
X62851208Y-72404052D01*
X62853408Y-72384741D01*
X62894678Y-72172437D01*
X62899871Y-72153716D01*
X62973837Y-71950504D01*
X62981900Y-71932810D01*
X63087315Y-71742647D01*
X63096631Y-71728281D01*
X63096654Y-71728250D01*
X63161668Y-71641732D01*
X63163017Y-71639974D01*
X67418849Y-66192758D01*
X84775907Y-66192758D01*
X84775908Y-66192764D01*
X84782315Y-66252371D01*
X84832609Y-66387216D01*
X84832613Y-66387223D01*
X84918859Y-66502432D01*
X84918862Y-66502435D01*
X85034071Y-66588681D01*
X85034078Y-66588685D01*
X85168924Y-66638979D01*
X85168923Y-66638979D01*
X85175851Y-66639723D01*
X85228534Y-66645388D01*
X87724279Y-66645387D01*
X87783890Y-66638979D01*
X87918738Y-66588684D01*
X88033953Y-66502434D01*
X88120203Y-66387219D01*
X88170498Y-66252371D01*
X88176907Y-66192761D01*
X88176906Y-63697016D01*
X88170498Y-63637405D01*
X88120203Y-63502557D01*
X88120202Y-63502556D01*
X88120200Y-63502552D01*
X88033954Y-63387343D01*
X88033951Y-63387340D01*
X87918742Y-63301094D01*
X87918736Y-63301091D01*
X87807573Y-63259629D01*
X87751640Y-63217757D01*
X87727223Y-63152293D01*
X87726907Y-63143447D01*
X87726907Y-52119526D01*
X87746592Y-52052487D01*
X87763221Y-52031849D01*
X88694226Y-51100844D01*
X88755547Y-51067361D01*
X88825238Y-51072345D01*
X88881172Y-51114217D01*
X88900877Y-51153576D01*
X88901819Y-51156782D01*
X88901823Y-51156793D01*
X88901825Y-51156801D01*
X88939332Y-51257360D01*
X88996830Y-51411519D01*
X89127109Y-51650107D01*
X89127110Y-51650108D01*
X89127113Y-51650113D01*
X89290029Y-51867742D01*
X89290033Y-51867746D01*
X89290038Y-51867752D01*
X89482247Y-52059961D01*
X89482253Y-52059966D01*
X89482258Y-52059971D01*
X89699887Y-52222887D01*
X89699891Y-52222889D01*
X89699892Y-52222890D01*
X89938481Y-52353169D01*
X89938480Y-52353169D01*
X89938484Y-52353170D01*
X89938487Y-52353172D01*
X90193199Y-52448175D01*
X90458840Y-52505961D01*
X90710605Y-52523967D01*
X90729999Y-52525355D01*
X90730000Y-52525355D01*
X90730001Y-52525355D01*
X90748100Y-52524060D01*
X91001160Y-52505961D01*
X91266801Y-52448175D01*
X91521513Y-52353172D01*
X91521517Y-52353169D01*
X91521519Y-52353169D01*
X91687882Y-52262328D01*
X91760113Y-52222887D01*
X91977742Y-52059971D01*
X92169971Y-51867742D01*
X92332887Y-51650113D01*
X92463172Y-51411513D01*
X92558175Y-51156801D01*
X92615961Y-50891160D01*
X92635355Y-50620000D01*
X92615961Y-50348840D01*
X92558175Y-50083199D01*
X92463172Y-49828487D01*
X92463170Y-49828484D01*
X92463169Y-49828480D01*
X92356935Y-49633927D01*
X92342083Y-49565654D01*
X92366500Y-49500189D01*
X92422434Y-49458318D01*
X92465767Y-49450500D01*
X100440664Y-49450500D01*
X100507703Y-49470185D01*
X100528345Y-49486819D01*
X101493181Y-50451655D01*
X101526666Y-50512978D01*
X101529500Y-50539336D01*
X101529500Y-50700663D01*
X101509815Y-50767702D01*
X101493181Y-50788344D01*
X98826174Y-53455351D01*
X98826169Y-53455357D01*
X98710472Y-53614600D01*
X98674419Y-53685358D01*
X98626445Y-53736153D01*
X98607270Y-53745243D01*
X98537671Y-53771202D01*
X98537663Y-53771207D01*
X98422455Y-53857452D01*
X98422452Y-53857455D01*
X98336206Y-53972664D01*
X98336202Y-53972671D01*
X98285908Y-54107517D01*
X98279501Y-54167116D01*
X98279500Y-54167135D01*
X98279500Y-56262870D01*
X98279501Y-56262876D01*
X98285908Y-56322483D01*
X98336202Y-56457328D01*
X98336206Y-56457335D01*
X98422452Y-56572544D01*
X98422455Y-56572547D01*
X98537664Y-56658793D01*
X98537671Y-56658797D01*
X98672517Y-56709091D01*
X98672516Y-56709091D01*
X98679444Y-56709835D01*
X98732127Y-56715500D01*
X99460663Y-56715499D01*
X99527702Y-56735183D01*
X99548344Y-56751818D01*
X105954808Y-63158282D01*
X105988293Y-63219605D01*
X105983309Y-63289297D01*
X105941439Y-63345229D01*
X105868859Y-63399563D01*
X105782613Y-63514772D01*
X105782609Y-63514779D01*
X105732315Y-63649625D01*
X105727220Y-63697023D01*
X105725908Y-63709231D01*
X105725907Y-63709243D01*
X105725907Y-66204978D01*
X105725908Y-66204984D01*
X105732315Y-66264591D01*
X105782609Y-66399436D01*
X105782613Y-66399443D01*
X105868859Y-66514652D01*
X105868862Y-66514655D01*
X105984071Y-66600901D01*
X105984078Y-66600905D01*
X106118924Y-66651199D01*
X106118923Y-66651199D01*
X106125851Y-66651943D01*
X106178534Y-66657608D01*
X108674279Y-66657607D01*
X108733890Y-66651199D01*
X108868738Y-66600904D01*
X108983953Y-66514654D01*
X109070203Y-66399439D01*
X109120498Y-66264591D01*
X109126907Y-66204981D01*
X109126906Y-63709236D01*
X109120498Y-63649625D01*
X109115940Y-63637405D01*
X109070204Y-63514779D01*
X109070200Y-63514772D01*
X108983954Y-63399563D01*
X108983951Y-63399560D01*
X108868742Y-63313314D01*
X108868736Y-63313311D01*
X108757573Y-63271849D01*
X108701640Y-63229977D01*
X108677223Y-63164513D01*
X108676907Y-63155667D01*
X108676907Y-62762984D01*
X108646116Y-62568580D01*
X108585289Y-62381377D01*
X108495930Y-62206001D01*
X108380235Y-62046761D01*
X108241053Y-61907579D01*
X101316818Y-54983344D01*
X101283333Y-54922021D01*
X101280499Y-54895663D01*
X101280499Y-54589336D01*
X101300184Y-54522297D01*
X101316818Y-54501655D01*
X103261655Y-52556818D01*
X103322978Y-52523333D01*
X103349336Y-52520499D01*
X104877871Y-52520499D01*
X104877872Y-52520499D01*
X104937483Y-52514091D01*
X105072331Y-52463796D01*
X105187546Y-52377546D01*
X105273796Y-52262331D01*
X105324091Y-52127483D01*
X105330500Y-52067873D01*
X105330499Y-49172128D01*
X105324091Y-49112517D01*
X105273796Y-48977669D01*
X105273795Y-48977668D01*
X105273793Y-48977664D01*
X105187547Y-48862455D01*
X105187544Y-48862452D01*
X105072335Y-48776206D01*
X105072328Y-48776202D01*
X104937482Y-48725908D01*
X104937483Y-48725908D01*
X104877883Y-48719501D01*
X104877881Y-48719500D01*
X104877873Y-48719500D01*
X104877865Y-48719500D01*
X103349336Y-48719500D01*
X103282297Y-48699815D01*
X103261655Y-48683181D01*
X101824648Y-47246174D01*
X101824647Y-47246173D01*
X101824646Y-47246172D01*
X101665405Y-47130476D01*
X101490030Y-47041117D01*
X101302826Y-46980290D01*
X101108422Y-46949500D01*
X101108417Y-46949500D01*
X89728181Y-46949500D01*
X89728176Y-46949500D01*
X89533771Y-46980290D01*
X89346568Y-47041117D01*
X89171192Y-47130476D01*
X89080340Y-47196484D01*
X89011953Y-47246171D01*
X89011951Y-47246173D01*
X89011950Y-47246173D01*
X85522581Y-50735542D01*
X85522581Y-50735543D01*
X85522579Y-50735545D01*
X85484218Y-50788344D01*
X85406883Y-50894785D01*
X85317076Y-51071042D01*
X85316015Y-51074803D01*
X85256698Y-51257360D01*
X85256698Y-51257363D01*
X85225907Y-51451768D01*
X85225907Y-63143448D01*
X85206222Y-63210487D01*
X85153418Y-63256242D01*
X85145240Y-63259630D01*
X85034078Y-63301090D01*
X85034071Y-63301094D01*
X84918862Y-63387340D01*
X84918859Y-63387343D01*
X84832613Y-63502552D01*
X84832609Y-63502559D01*
X84782315Y-63637405D01*
X84775908Y-63697004D01*
X84775908Y-63697011D01*
X84775907Y-63697023D01*
X84775907Y-66192758D01*
X67418849Y-66192758D01*
X82864888Y-46422730D01*
X82995490Y-46251804D01*
X83230230Y-45891295D01*
X83433129Y-45511951D01*
X83602688Y-45116579D01*
X83737653Y-44708101D01*
X83749760Y-44657103D01*
X85339863Y-44657103D01*
X85379198Y-44905459D01*
X85456905Y-45144613D01*
X85571065Y-45368662D01*
X85718860Y-45572086D01*
X85718864Y-45572091D01*
X85896674Y-45749901D01*
X85896679Y-45749905D01*
X86074117Y-45878820D01*
X86100107Y-45897703D01*
X86242871Y-45970445D01*
X86324152Y-46011860D01*
X86324154Y-46011860D01*
X86324157Y-46011862D01*
X86452346Y-46053513D01*
X86563306Y-46089567D01*
X86811663Y-46128903D01*
X87063126Y-46128903D01*
X87063131Y-46128903D01*
X87311487Y-46089567D01*
X87550637Y-46011862D01*
X87774687Y-45897703D01*
X87978121Y-45749900D01*
X88155928Y-45572093D01*
X88303731Y-45368659D01*
X88417890Y-45144609D01*
X88495595Y-44905459D01*
X88534930Y-44657103D01*
X105197883Y-44657103D01*
X105237218Y-44905459D01*
X105314925Y-45144613D01*
X105429085Y-45368662D01*
X105576880Y-45572086D01*
X105576884Y-45572091D01*
X105754694Y-45749901D01*
X105754699Y-45749905D01*
X105932137Y-45878820D01*
X105958127Y-45897703D01*
X106100891Y-45970445D01*
X106182172Y-46011860D01*
X106182174Y-46011860D01*
X106182177Y-46011862D01*
X106310366Y-46053513D01*
X106421326Y-46089567D01*
X106669683Y-46128903D01*
X106921146Y-46128903D01*
X106921151Y-46128903D01*
X107169507Y-46089567D01*
X107408657Y-46011862D01*
X107632707Y-45897703D01*
X107836141Y-45749900D01*
X108013948Y-45572093D01*
X108161751Y-45368659D01*
X108275910Y-45144609D01*
X108353615Y-44905459D01*
X108392951Y-44657098D01*
X108395417Y-44531369D01*
X108392951Y-44405640D01*
X108353615Y-44157279D01*
X108275910Y-43918129D01*
X108275908Y-43918126D01*
X108275908Y-43918124D01*
X108234493Y-43836843D01*
X108161751Y-43694079D01*
X108069038Y-43566470D01*
X108013953Y-43490651D01*
X108013949Y-43490646D01*
X107836139Y-43312836D01*
X107836134Y-43312832D01*
X107632710Y-43165037D01*
X107632709Y-43165036D01*
X107632707Y-43165035D01*
X107562739Y-43129384D01*
X107408661Y-43050877D01*
X107169507Y-42973170D01*
X106921151Y-42933835D01*
X106921146Y-42933835D01*
X106669688Y-42933835D01*
X106669683Y-42933835D01*
X106421326Y-42973170D01*
X106182172Y-43050877D01*
X105958123Y-43165037D01*
X105754699Y-43312832D01*
X105754694Y-43312836D01*
X105576884Y-43490646D01*
X105576880Y-43490651D01*
X105429085Y-43694075D01*
X105314925Y-43918124D01*
X105237218Y-44157278D01*
X105197883Y-44405634D01*
X105197883Y-44657103D01*
X88534930Y-44657103D01*
X88534931Y-44657098D01*
X88537397Y-44531369D01*
X88534931Y-44405640D01*
X88495595Y-44157279D01*
X88417890Y-43918129D01*
X88417888Y-43918126D01*
X88417888Y-43918124D01*
X88376473Y-43836843D01*
X88303731Y-43694079D01*
X88211018Y-43566470D01*
X88155933Y-43490651D01*
X88155929Y-43490646D01*
X87978119Y-43312836D01*
X87978114Y-43312832D01*
X87774690Y-43165037D01*
X87774689Y-43165036D01*
X87774687Y-43165035D01*
X87704719Y-43129384D01*
X87550641Y-43050877D01*
X87311487Y-42973170D01*
X87063131Y-42933835D01*
X87063126Y-42933835D01*
X86811668Y-42933835D01*
X86811663Y-42933835D01*
X86563306Y-42973170D01*
X86324152Y-43050877D01*
X86100103Y-43165037D01*
X85896679Y-43312832D01*
X85896674Y-43312836D01*
X85718864Y-43490646D01*
X85718860Y-43490651D01*
X85571065Y-43694075D01*
X85456905Y-43918124D01*
X85379198Y-44157278D01*
X85339863Y-44405634D01*
X85339863Y-44657103D01*
X83749760Y-44657103D01*
X83837024Y-44289539D01*
X83870860Y-44077105D01*
X83898254Y-43908261D01*
X83900865Y-43896081D01*
X83989046Y-43566470D01*
X83989047Y-43566469D01*
X83989047Y-43566464D01*
X83993484Y-43553014D01*
X84118383Y-43236398D01*
X84124312Y-43223567D01*
X84284521Y-42923258D01*
X84291881Y-42911178D01*
X84485301Y-42631111D01*
X84494002Y-42619937D01*
X84718101Y-42363775D01*
X84728016Y-42353671D01*
X84779915Y-42306497D01*
X84979880Y-42124742D01*
X84990877Y-42115838D01*
X85267221Y-41917135D01*
X85279163Y-41909543D01*
X85576375Y-41743658D01*
X85589093Y-41737486D01*
X85903284Y-41606593D01*
X85916638Y-41601906D01*
X86243715Y-41507711D01*
X86257498Y-41504582D01*
X86593180Y-41448317D01*
X86607262Y-41446778D01*
X86947169Y-41429176D01*
X86961305Y-41429252D01*
X87301005Y-41450544D01*
X87315064Y-41452236D01*
X87650094Y-41512137D01*
X87663869Y-41515421D01*
X87990658Y-41613387D01*
X87990725Y-41613407D01*
X88002456Y-41617577D01*
X88160234Y-41682748D01*
X88160639Y-41682915D01*
X88347717Y-41761040D01*
X88545035Y-41827412D01*
X88732200Y-41890370D01*
X88830625Y-41914807D01*
X89125899Y-41988120D01*
X89526224Y-42053647D01*
X89930542Y-42086520D01*
X90133368Y-42088536D01*
X103599423Y-42088536D01*
X103599446Y-42088536D01*
X103772223Y-42086804D01*
X103802276Y-42086503D01*
X103895757Y-42078902D01*
X104206589Y-42053632D01*
X104606914Y-41988109D01*
X105000613Y-41890365D01*
X105385099Y-41761044D01*
X105572268Y-41682877D01*
X105730355Y-41617559D01*
X105742084Y-41613389D01*
X106068934Y-41515406D01*
X106082716Y-41512121D01*
X106107410Y-41507706D01*
X106417746Y-41452221D01*
X106431803Y-41450529D01*
X106771503Y-41429239D01*
X106785640Y-41429163D01*
X107125561Y-41446766D01*
G37*
%TD.AperFunction*%
%TD*%
M02*
