%TF.GenerationSoftware,KiCad,Pcbnew,8.0.0-dirty*%
%TF.CreationDate,2024-03-12T22:31:02-04:00*%
%TF.ProjectId,KickerPCB,4b69636b-6572-4504-9342-2e6b69636164,rev?*%
%TF.SameCoordinates,Original*%
%TF.FileFunction,Soldermask,Bot*%
%TF.FilePolarity,Negative*%
%FSLAX46Y46*%
G04 Gerber Fmt 4.6, Leading zero omitted, Abs format (unit mm)*
G04 Created by KiCad (PCBNEW 8.0.0-dirty) date 2024-03-12 22:31:02*
%MOMM*%
%LPD*%
G01*
G04 APERTURE LIST*
G04 Aperture macros list*
%AMRoundRect*
0 Rectangle with rounded corners*
0 $1 Rounding radius*
0 $2 $3 $4 $5 $6 $7 $8 $9 X,Y pos of 4 corners*
0 Add a 4 corners polygon primitive as box body*
4,1,4,$2,$3,$4,$5,$6,$7,$8,$9,$2,$3,0*
0 Add four circle primitives for the rounded corners*
1,1,$1+$1,$2,$3*
1,1,$1+$1,$4,$5*
1,1,$1+$1,$6,$7*
1,1,$1+$1,$8,$9*
0 Add four rect primitives between the rounded corners*
20,1,$1+$1,$2,$3,$4,$5,0*
20,1,$1+$1,$4,$5,$6,$7,0*
20,1,$1+$1,$6,$7,$8,$9,0*
20,1,$1+$1,$8,$9,$2,$3,0*%
G04 Aperture macros list end*
%ADD10R,2.400000X2.400000*%
%ADD11C,2.400000*%
%ADD12R,1.600000X1.600000*%
%ADD13O,1.600000X1.600000*%
%ADD14R,2.800000X2.800000*%
%ADD15O,2.800000X2.800000*%
%ADD16R,1.700000X1.700000*%
%ADD17O,1.700000X1.700000*%
%ADD18R,1.905000X2.000000*%
%ADD19O,1.905000X2.000000*%
%ADD20R,2.000000X2.000000*%
%ADD21O,2.000000X2.000000*%
%ADD22RoundRect,0.250000X-0.450000X0.350000X-0.450000X-0.350000X0.450000X-0.350000X0.450000X0.350000X0*%
%ADD23RoundRect,0.250000X0.450000X-0.325000X0.450000X0.325000X-0.450000X0.325000X-0.450000X-0.325000X0*%
%ADD24RoundRect,0.825000X0.825000X0.825000X-0.825000X0.825000X-0.825000X-0.825000X0.825000X-0.825000X0*%
G04 APERTURE END LIST*
D10*
%TO.C,U14*%
X107426407Y-64957108D03*
D11*
X107426407Y-72457108D03*
%TD*%
D12*
%TO.C,U9*%
X81870000Y-87075000D03*
D13*
X81870000Y-89615000D03*
X89490000Y-89615000D03*
X89490000Y-87075000D03*
%TD*%
D14*
%TO.C,U11*%
X103430000Y-50620000D03*
D15*
X90730000Y-50620000D03*
%TD*%
D16*
%TO.C,J1*%
X119610000Y-70900000D03*
D17*
X119610000Y-73440000D03*
X119610000Y-75980000D03*
%TD*%
D18*
%TO.C,U10*%
X88580000Y-81080000D03*
D19*
X86040000Y-81080000D03*
X83500000Y-81080000D03*
%TD*%
D20*
%TO.C,R1*%
X99780000Y-55215000D03*
D21*
X94700000Y-55215000D03*
%TD*%
D18*
%TO.C,U3*%
X110960000Y-80625000D03*
D19*
X108420000Y-80625000D03*
X105880000Y-80625000D03*
%TD*%
D12*
%TO.C,U4*%
X104220000Y-88055000D03*
D13*
X104220000Y-90595000D03*
X111840000Y-90595000D03*
X111840000Y-88055000D03*
%TD*%
D10*
%TO.C,U6*%
X86476407Y-64944888D03*
D11*
X86476407Y-72444888D03*
%TD*%
D22*
%TO.C,R2*%
X101880000Y-67490000D03*
X101880000Y-69490000D03*
%TD*%
D23*
%TO.C,D1*%
X89240000Y-69270000D03*
X89240000Y-67220000D03*
%TD*%
D22*
%TO.C,U1*%
X110740000Y-67620000D03*
X110740000Y-69620000D03*
%TD*%
%TO.C,R3*%
X114850000Y-67690000D03*
X114850000Y-69690000D03*
%TD*%
%TO.C,U12*%
X78880000Y-68030000D03*
X78880000Y-70030000D03*
%TD*%
%TO.C,U8*%
X82820000Y-67900000D03*
X82820000Y-69900000D03*
%TD*%
%TO.C,U7*%
X93540000Y-67360000D03*
X93540000Y-69360000D03*
%TD*%
D24*
%TO.C,U13*%
X99280000Y-78040000D03*
X94200000Y-78040000D03*
%TD*%
M02*
