%TF.GenerationSoftware,KiCad,Pcbnew,8.0.0-dirty*%
%TF.CreationDate,2024-03-12T22:31:02-04:00*%
%TF.ProjectId,KickerPCB,4b69636b-6572-4504-9342-2e6b69636164,rev?*%
%TF.SameCoordinates,Original*%
%TF.FileFunction,Legend,Top*%
%TF.FilePolarity,Positive*%
%FSLAX46Y46*%
G04 Gerber Fmt 4.6, Leading zero omitted, Abs format (unit mm)*
G04 Created by KiCad (PCBNEW 8.0.0-dirty) date 2024-03-12 22:31:02*
%MOMM*%
%LPD*%
G01*
G04 APERTURE LIST*
%ADD10C,0.150000*%
%ADD11C,0.120000*%
G04 APERTURE END LIST*
D10*
X91934819Y-80331904D02*
X92744342Y-80331904D01*
X92744342Y-80331904D02*
X92839580Y-80284285D01*
X92839580Y-80284285D02*
X92887200Y-80236666D01*
X92887200Y-80236666D02*
X92934819Y-80141428D01*
X92934819Y-80141428D02*
X92934819Y-79950952D01*
X92934819Y-79950952D02*
X92887200Y-79855714D01*
X92887200Y-79855714D02*
X92839580Y-79808095D01*
X92839580Y-79808095D02*
X92744342Y-79760476D01*
X92744342Y-79760476D02*
X91934819Y-79760476D01*
X91934819Y-78808095D02*
X91934819Y-79284285D01*
X91934819Y-79284285D02*
X92411009Y-79331904D01*
X92411009Y-79331904D02*
X92363390Y-79284285D01*
X92363390Y-79284285D02*
X92315771Y-79189047D01*
X92315771Y-79189047D02*
X92315771Y-78950952D01*
X92315771Y-78950952D02*
X92363390Y-78855714D01*
X92363390Y-78855714D02*
X92411009Y-78808095D01*
X92411009Y-78808095D02*
X92506247Y-78760476D01*
X92506247Y-78760476D02*
X92744342Y-78760476D01*
X92744342Y-78760476D02*
X92839580Y-78808095D01*
X92839580Y-78808095D02*
X92887200Y-78855714D01*
X92887200Y-78855714D02*
X92934819Y-78950952D01*
X92934819Y-78950952D02*
X92934819Y-79189047D01*
X92934819Y-79189047D02*
X92887200Y-79284285D01*
X92887200Y-79284285D02*
X92839580Y-79331904D01*
X97274819Y-80651904D02*
X98084342Y-80651904D01*
X98084342Y-80651904D02*
X98179580Y-80604285D01*
X98179580Y-80604285D02*
X98227200Y-80556666D01*
X98227200Y-80556666D02*
X98274819Y-80461428D01*
X98274819Y-80461428D02*
X98274819Y-80270952D01*
X98274819Y-80270952D02*
X98227200Y-80175714D01*
X98227200Y-80175714D02*
X98179580Y-80128095D01*
X98179580Y-80128095D02*
X98084342Y-80080476D01*
X98084342Y-80080476D02*
X97274819Y-80080476D01*
X97370057Y-79651904D02*
X97322438Y-79604285D01*
X97322438Y-79604285D02*
X97274819Y-79509047D01*
X97274819Y-79509047D02*
X97274819Y-79270952D01*
X97274819Y-79270952D02*
X97322438Y-79175714D01*
X97322438Y-79175714D02*
X97370057Y-79128095D01*
X97370057Y-79128095D02*
X97465295Y-79080476D01*
X97465295Y-79080476D02*
X97560533Y-79080476D01*
X97560533Y-79080476D02*
X97703390Y-79128095D01*
X97703390Y-79128095D02*
X98274819Y-79699523D01*
X98274819Y-79699523D02*
X98274819Y-79080476D01*
X117131226Y-69945202D02*
X117940749Y-69945202D01*
X117940749Y-69945202D02*
X118035987Y-69897583D01*
X118035987Y-69897583D02*
X118083607Y-69849964D01*
X118083607Y-69849964D02*
X118131226Y-69754726D01*
X118131226Y-69754726D02*
X118131226Y-69564250D01*
X118131226Y-69564250D02*
X118083607Y-69469012D01*
X118083607Y-69469012D02*
X118035987Y-69421393D01*
X118035987Y-69421393D02*
X117940749Y-69373774D01*
X117940749Y-69373774D02*
X117131226Y-69373774D01*
X118131226Y-68373774D02*
X118131226Y-68945202D01*
X118131226Y-68659488D02*
X117131226Y-68659488D01*
X117131226Y-68659488D02*
X117274083Y-68754726D01*
X117274083Y-68754726D02*
X117369321Y-68849964D01*
X117369321Y-68849964D02*
X117416940Y-68945202D01*
X117464559Y-67516631D02*
X118131226Y-67516631D01*
X117083607Y-67754726D02*
X117797892Y-67992821D01*
X117797892Y-67992821D02*
X117797892Y-67373774D01*
X84918095Y-84199819D02*
X84918095Y-85009342D01*
X84918095Y-85009342D02*
X84965714Y-85104580D01*
X84965714Y-85104580D02*
X85013333Y-85152200D01*
X85013333Y-85152200D02*
X85108571Y-85199819D01*
X85108571Y-85199819D02*
X85299047Y-85199819D01*
X85299047Y-85199819D02*
X85394285Y-85152200D01*
X85394285Y-85152200D02*
X85441904Y-85104580D01*
X85441904Y-85104580D02*
X85489523Y-85009342D01*
X85489523Y-85009342D02*
X85489523Y-84199819D01*
X86013333Y-85199819D02*
X86203809Y-85199819D01*
X86203809Y-85199819D02*
X86299047Y-85152200D01*
X86299047Y-85152200D02*
X86346666Y-85104580D01*
X86346666Y-85104580D02*
X86441904Y-84961723D01*
X86441904Y-84961723D02*
X86489523Y-84771247D01*
X86489523Y-84771247D02*
X86489523Y-84390295D01*
X86489523Y-84390295D02*
X86441904Y-84295057D01*
X86441904Y-84295057D02*
X86394285Y-84247438D01*
X86394285Y-84247438D02*
X86299047Y-84199819D01*
X86299047Y-84199819D02*
X86108571Y-84199819D01*
X86108571Y-84199819D02*
X86013333Y-84247438D01*
X86013333Y-84247438D02*
X85965714Y-84295057D01*
X85965714Y-84295057D02*
X85918095Y-84390295D01*
X85918095Y-84390295D02*
X85918095Y-84628390D01*
X85918095Y-84628390D02*
X85965714Y-84723628D01*
X85965714Y-84723628D02*
X86013333Y-84771247D01*
X86013333Y-84771247D02*
X86108571Y-84818866D01*
X86108571Y-84818866D02*
X86299047Y-84818866D01*
X86299047Y-84818866D02*
X86394285Y-84771247D01*
X86394285Y-84771247D02*
X86441904Y-84723628D01*
X86441904Y-84723628D02*
X86489523Y-84628390D01*
X95841905Y-53044819D02*
X95841905Y-53854342D01*
X95841905Y-53854342D02*
X95889524Y-53949580D01*
X95889524Y-53949580D02*
X95937143Y-53997200D01*
X95937143Y-53997200D02*
X96032381Y-54044819D01*
X96032381Y-54044819D02*
X96222857Y-54044819D01*
X96222857Y-54044819D02*
X96318095Y-53997200D01*
X96318095Y-53997200D02*
X96365714Y-53949580D01*
X96365714Y-53949580D02*
X96413333Y-53854342D01*
X96413333Y-53854342D02*
X96413333Y-53044819D01*
X97413333Y-54044819D02*
X96841905Y-54044819D01*
X97127619Y-54044819D02*
X97127619Y-53044819D01*
X97127619Y-53044819D02*
X97032381Y-53187676D01*
X97032381Y-53187676D02*
X96937143Y-53282914D01*
X96937143Y-53282914D02*
X96841905Y-53330533D01*
X98365714Y-54044819D02*
X97794286Y-54044819D01*
X98080000Y-54044819D02*
X98080000Y-53044819D01*
X98080000Y-53044819D02*
X97984762Y-53187676D01*
X97984762Y-53187676D02*
X97889524Y-53282914D01*
X97889524Y-53282914D02*
X97794286Y-53330533D01*
X103168095Y-53474819D02*
X103168095Y-52474819D01*
X103739523Y-53474819D02*
X103310952Y-52903390D01*
X103739523Y-52474819D02*
X103168095Y-53046247D01*
X119276666Y-68024819D02*
X119276666Y-68739104D01*
X119276666Y-68739104D02*
X119229047Y-68881961D01*
X119229047Y-68881961D02*
X119133809Y-68977200D01*
X119133809Y-68977200D02*
X118990952Y-69024819D01*
X118990952Y-69024819D02*
X118895714Y-69024819D01*
X120276666Y-69024819D02*
X119705238Y-69024819D01*
X119990952Y-69024819D02*
X119990952Y-68024819D01*
X119990952Y-68024819D02*
X119895714Y-68167676D01*
X119895714Y-68167676D02*
X119800476Y-68262914D01*
X119800476Y-68262914D02*
X119705238Y-68310533D01*
X84801905Y-84804819D02*
X84801905Y-85614342D01*
X84801905Y-85614342D02*
X84849524Y-85709580D01*
X84849524Y-85709580D02*
X84897143Y-85757200D01*
X84897143Y-85757200D02*
X84992381Y-85804819D01*
X84992381Y-85804819D02*
X85182857Y-85804819D01*
X85182857Y-85804819D02*
X85278095Y-85757200D01*
X85278095Y-85757200D02*
X85325714Y-85709580D01*
X85325714Y-85709580D02*
X85373333Y-85614342D01*
X85373333Y-85614342D02*
X85373333Y-84804819D01*
X86373333Y-85804819D02*
X85801905Y-85804819D01*
X86087619Y-85804819D02*
X86087619Y-84804819D01*
X86087619Y-84804819D02*
X85992381Y-84947676D01*
X85992381Y-84947676D02*
X85897143Y-85042914D01*
X85897143Y-85042914D02*
X85801905Y-85090533D01*
X86992381Y-84804819D02*
X87087619Y-84804819D01*
X87087619Y-84804819D02*
X87182857Y-84852438D01*
X87182857Y-84852438D02*
X87230476Y-84900057D01*
X87230476Y-84900057D02*
X87278095Y-84995295D01*
X87278095Y-84995295D02*
X87325714Y-85185771D01*
X87325714Y-85185771D02*
X87325714Y-85423866D01*
X87325714Y-85423866D02*
X87278095Y-85614342D01*
X87278095Y-85614342D02*
X87230476Y-85709580D01*
X87230476Y-85709580D02*
X87182857Y-85757200D01*
X87182857Y-85757200D02*
X87087619Y-85804819D01*
X87087619Y-85804819D02*
X86992381Y-85804819D01*
X86992381Y-85804819D02*
X86897143Y-85757200D01*
X86897143Y-85757200D02*
X86849524Y-85709580D01*
X86849524Y-85709580D02*
X86801905Y-85614342D01*
X86801905Y-85614342D02*
X86754286Y-85423866D01*
X86754286Y-85423866D02*
X86754286Y-85185771D01*
X86754286Y-85185771D02*
X86801905Y-84995295D01*
X86801905Y-84995295D02*
X86849524Y-84900057D01*
X86849524Y-84900057D02*
X86897143Y-84852438D01*
X86897143Y-84852438D02*
X86992381Y-84804819D01*
X97073333Y-59939819D02*
X96740000Y-59463628D01*
X96501905Y-59939819D02*
X96501905Y-58939819D01*
X96501905Y-58939819D02*
X96882857Y-58939819D01*
X96882857Y-58939819D02*
X96978095Y-58987438D01*
X96978095Y-58987438D02*
X97025714Y-59035057D01*
X97025714Y-59035057D02*
X97073333Y-59130295D01*
X97073333Y-59130295D02*
X97073333Y-59273152D01*
X97073333Y-59273152D02*
X97025714Y-59368390D01*
X97025714Y-59368390D02*
X96978095Y-59416009D01*
X96978095Y-59416009D02*
X96882857Y-59463628D01*
X96882857Y-59463628D02*
X96501905Y-59463628D01*
X98025714Y-59939819D02*
X97454286Y-59939819D01*
X97740000Y-59939819D02*
X97740000Y-58939819D01*
X97740000Y-58939819D02*
X97644762Y-59082676D01*
X97644762Y-59082676D02*
X97549524Y-59177914D01*
X97549524Y-59177914D02*
X97454286Y-59225533D01*
X107658095Y-84349819D02*
X107658095Y-85159342D01*
X107658095Y-85159342D02*
X107705714Y-85254580D01*
X107705714Y-85254580D02*
X107753333Y-85302200D01*
X107753333Y-85302200D02*
X107848571Y-85349819D01*
X107848571Y-85349819D02*
X108039047Y-85349819D01*
X108039047Y-85349819D02*
X108134285Y-85302200D01*
X108134285Y-85302200D02*
X108181904Y-85254580D01*
X108181904Y-85254580D02*
X108229523Y-85159342D01*
X108229523Y-85159342D02*
X108229523Y-84349819D01*
X108610476Y-84349819D02*
X109229523Y-84349819D01*
X109229523Y-84349819D02*
X108896190Y-84730771D01*
X108896190Y-84730771D02*
X109039047Y-84730771D01*
X109039047Y-84730771D02*
X109134285Y-84778390D01*
X109134285Y-84778390D02*
X109181904Y-84826009D01*
X109181904Y-84826009D02*
X109229523Y-84921247D01*
X109229523Y-84921247D02*
X109229523Y-85159342D01*
X109229523Y-85159342D02*
X109181904Y-85254580D01*
X109181904Y-85254580D02*
X109134285Y-85302200D01*
X109134285Y-85302200D02*
X109039047Y-85349819D01*
X109039047Y-85349819D02*
X108753333Y-85349819D01*
X108753333Y-85349819D02*
X108658095Y-85302200D01*
X108658095Y-85302200D02*
X108610476Y-85254580D01*
X107268095Y-85179819D02*
X107268095Y-85989342D01*
X107268095Y-85989342D02*
X107315714Y-86084580D01*
X107315714Y-86084580D02*
X107363333Y-86132200D01*
X107363333Y-86132200D02*
X107458571Y-86179819D01*
X107458571Y-86179819D02*
X107649047Y-86179819D01*
X107649047Y-86179819D02*
X107744285Y-86132200D01*
X107744285Y-86132200D02*
X107791904Y-86084580D01*
X107791904Y-86084580D02*
X107839523Y-85989342D01*
X107839523Y-85989342D02*
X107839523Y-85179819D01*
X108744285Y-85513152D02*
X108744285Y-86179819D01*
X108506190Y-85132200D02*
X108268095Y-85846485D01*
X108268095Y-85846485D02*
X108887142Y-85846485D01*
X96181226Y-69456792D02*
X96990749Y-69456792D01*
X96990749Y-69456792D02*
X97085987Y-69409173D01*
X97085987Y-69409173D02*
X97133607Y-69361554D01*
X97133607Y-69361554D02*
X97181226Y-69266316D01*
X97181226Y-69266316D02*
X97181226Y-69075840D01*
X97181226Y-69075840D02*
X97133607Y-68980602D01*
X97133607Y-68980602D02*
X97085987Y-68932983D01*
X97085987Y-68932983D02*
X96990749Y-68885364D01*
X96990749Y-68885364D02*
X96181226Y-68885364D01*
X96181226Y-67980602D02*
X96181226Y-68171078D01*
X96181226Y-68171078D02*
X96228845Y-68266316D01*
X96228845Y-68266316D02*
X96276464Y-68313935D01*
X96276464Y-68313935D02*
X96419321Y-68409173D01*
X96419321Y-68409173D02*
X96609797Y-68456792D01*
X96609797Y-68456792D02*
X96990749Y-68456792D01*
X96990749Y-68456792D02*
X97085987Y-68409173D01*
X97085987Y-68409173D02*
X97133607Y-68361554D01*
X97133607Y-68361554D02*
X97181226Y-68266316D01*
X97181226Y-68266316D02*
X97181226Y-68075840D01*
X97181226Y-68075840D02*
X97133607Y-67980602D01*
X97133607Y-67980602D02*
X97085987Y-67932983D01*
X97085987Y-67932983D02*
X96990749Y-67885364D01*
X96990749Y-67885364D02*
X96752654Y-67885364D01*
X96752654Y-67885364D02*
X96657416Y-67932983D01*
X96657416Y-67932983D02*
X96609797Y-67980602D01*
X96609797Y-67980602D02*
X96562178Y-68075840D01*
X96562178Y-68075840D02*
X96562178Y-68266316D01*
X96562178Y-68266316D02*
X96609797Y-68361554D01*
X96609797Y-68361554D02*
X96657416Y-68409173D01*
X96657416Y-68409173D02*
X96752654Y-68456792D01*
D11*
%TO.C,U5*%
X93395000Y-79797064D02*
X93395000Y-79342936D01*
X94865000Y-79797064D02*
X94865000Y-79342936D01*
%TO.C,U2*%
X98735000Y-80117064D02*
X98735000Y-79662936D01*
X100205000Y-80117064D02*
X100205000Y-79662936D01*
%TO.C,U14*%
X105986407Y-71028108D02*
X98646407Y-71028108D01*
X105986407Y-71068108D02*
X98656407Y-71068108D01*
X105986407Y-71108108D02*
X98667407Y-71108108D01*
X105986407Y-71148108D02*
X98678407Y-71148108D01*
X105986407Y-71188108D02*
X98689407Y-71188108D01*
X105986407Y-71228108D02*
X98701407Y-71228108D01*
X105986407Y-71268108D02*
X98712407Y-71268108D01*
X105986407Y-71308108D02*
X98724407Y-71308108D01*
X105986407Y-71348108D02*
X98736407Y-71348108D01*
X105986407Y-71388108D02*
X98748407Y-71388108D01*
X105986407Y-71428108D02*
X98761407Y-71428108D01*
X105986407Y-71468108D02*
X98773407Y-71468108D01*
X105986407Y-71508108D02*
X98786407Y-71508108D01*
X105986407Y-71548108D02*
X98799407Y-71548108D01*
X105986407Y-71588108D02*
X98812407Y-71588108D01*
X105986407Y-71628108D02*
X98826407Y-71628108D01*
X105986407Y-71668108D02*
X98839407Y-71668108D01*
X105986407Y-71708108D02*
X98853407Y-71708108D01*
X105986407Y-71748108D02*
X98867407Y-71748108D01*
X105986407Y-71788108D02*
X98881407Y-71788108D01*
X105986407Y-71828108D02*
X98896407Y-71828108D01*
X105986407Y-71868108D02*
X98910407Y-71868108D01*
X105986407Y-71908108D02*
X98925407Y-71908108D01*
X105986407Y-71948108D02*
X98940407Y-71948108D01*
X105986407Y-71988108D02*
X98956407Y-71988108D01*
X105986407Y-72028108D02*
X98971407Y-72028108D01*
X105986407Y-72068108D02*
X98987407Y-72068108D01*
X105986407Y-72108108D02*
X99003407Y-72108108D01*
X105986407Y-72148108D02*
X99019407Y-72148108D01*
X105986407Y-72188108D02*
X99036407Y-72188108D01*
X105986407Y-72228108D02*
X99052407Y-72228108D01*
X105986407Y-72268108D02*
X99069407Y-72268108D01*
X105986407Y-72308108D02*
X99086407Y-72308108D01*
X105986407Y-72348108D02*
X99103407Y-72348108D01*
X105986407Y-72388108D02*
X99121407Y-72388108D01*
X105986407Y-72428108D02*
X99139407Y-72428108D01*
X105986407Y-72468108D02*
X99157407Y-72468108D01*
X105986407Y-72508108D02*
X99175407Y-72508108D01*
X105986407Y-72548108D02*
X99193407Y-72548108D01*
X105986407Y-72588108D02*
X99212407Y-72588108D01*
X105986407Y-72628108D02*
X99231407Y-72628108D01*
X105986407Y-72668108D02*
X99250407Y-72668108D01*
X105986407Y-72708108D02*
X99270407Y-72708108D01*
X105986407Y-72748108D02*
X99289407Y-72748108D01*
X105986407Y-72788108D02*
X99309407Y-72788108D01*
X105986407Y-72828108D02*
X99329407Y-72828108D01*
X105986407Y-72868108D02*
X99350407Y-72868108D01*
X105986407Y-72908108D02*
X99370407Y-72908108D01*
X105986407Y-72948108D02*
X99391407Y-72948108D01*
X105986407Y-72988108D02*
X99412407Y-72988108D01*
X105986407Y-73028108D02*
X99434407Y-73028108D01*
X105986407Y-73068108D02*
X99455407Y-73068108D01*
X105986407Y-73108108D02*
X99477407Y-73108108D01*
X105986407Y-73148108D02*
X99499407Y-73148108D01*
X105986407Y-73188108D02*
X99522407Y-73188108D01*
X105986407Y-73228108D02*
X99544407Y-73228108D01*
X105986407Y-73268108D02*
X99567407Y-73268108D01*
X105986407Y-73308108D02*
X99591407Y-73308108D01*
X105986407Y-73348108D02*
X99614407Y-73348108D01*
X105986407Y-73388108D02*
X99638407Y-73388108D01*
X105986407Y-73428108D02*
X99662407Y-73428108D01*
X105986407Y-73468108D02*
X99686407Y-73468108D01*
X105986407Y-73508108D02*
X99711407Y-73508108D01*
X105986407Y-73548108D02*
X99736407Y-73548108D01*
X105986407Y-73588108D02*
X99761407Y-73588108D01*
X105986407Y-73628108D02*
X99786407Y-73628108D01*
X105986407Y-73668108D02*
X99812407Y-73668108D01*
X105986407Y-73708108D02*
X99838407Y-73708108D01*
X105986407Y-73748108D02*
X99865407Y-73748108D01*
X105986407Y-73788108D02*
X99891407Y-73788108D01*
X105986407Y-73828108D02*
X99918407Y-73828108D01*
X105986407Y-73868108D02*
X99946407Y-73868108D01*
X107466407Y-77827108D02*
X107386407Y-77827108D01*
X108240407Y-77787108D02*
X106612407Y-77787108D01*
X108592407Y-77747108D02*
X106260407Y-77747108D01*
X108861407Y-77707108D02*
X105991407Y-77707108D01*
X109087407Y-77667108D02*
X105765407Y-77667108D01*
X109286407Y-77627108D02*
X105566407Y-77627108D01*
X109465407Y-77587108D02*
X105387407Y-77587108D01*
X109629407Y-77547108D02*
X105223407Y-77547108D01*
X109781407Y-77507108D02*
X105071407Y-77507108D01*
X109924407Y-77467108D02*
X104928407Y-77467108D01*
X110058407Y-77427108D02*
X104794407Y-77427108D01*
X110185407Y-77387108D02*
X104667407Y-77387108D01*
X110306407Y-77347108D02*
X104546407Y-77347108D01*
X110422407Y-77307108D02*
X104430407Y-77307108D01*
X110533407Y-77267108D02*
X104319407Y-77267108D01*
X110640407Y-77227108D02*
X104212407Y-77227108D01*
X110743407Y-77187108D02*
X104109407Y-77187108D01*
X110842407Y-77147108D02*
X104010407Y-77147108D01*
X110938407Y-77107108D02*
X103914407Y-77107108D01*
X111031407Y-77067108D02*
X103821407Y-77067108D01*
X111122407Y-77027108D02*
X103730407Y-77027108D01*
X111210407Y-76987108D02*
X103642407Y-76987108D01*
X111295407Y-76947108D02*
X103557407Y-76947108D01*
X111378407Y-76907108D02*
X103474407Y-76907108D01*
X111459407Y-76868108D02*
X103393407Y-76868108D01*
X111539407Y-76828108D02*
X103313407Y-76828108D01*
X111616407Y-76788108D02*
X103236407Y-76788108D01*
X111691407Y-76748108D02*
X103161407Y-76748108D01*
X111765407Y-76708108D02*
X103087407Y-76708108D01*
X111838407Y-76668108D02*
X103014407Y-76668108D01*
X111908407Y-76628108D02*
X102944407Y-76628108D01*
X111978407Y-76588108D02*
X102874407Y-76588108D01*
X112046407Y-76548108D02*
X102806407Y-76548108D01*
X112112407Y-76508108D02*
X102740407Y-76508108D01*
X112178407Y-76468108D02*
X102674407Y-76468108D01*
X112242407Y-76428108D02*
X102610407Y-76428108D01*
X112305407Y-76388108D02*
X102547407Y-76388108D01*
X112367407Y-76348108D02*
X102485407Y-76348108D01*
X112428407Y-76308108D02*
X102424407Y-76308108D01*
X112488407Y-76268108D02*
X102364407Y-76268108D01*
X112541407Y-58947668D02*
X112541407Y-60747668D01*
X112546407Y-76228108D02*
X102306407Y-76228108D01*
X112604407Y-76188108D02*
X102248407Y-76188108D01*
X112661407Y-76148108D02*
X102191407Y-76148108D01*
X112717407Y-76108108D02*
X102135407Y-76108108D01*
X112772407Y-76068108D02*
X102080407Y-76068108D01*
X112826407Y-76028108D02*
X102026407Y-76028108D01*
X112880407Y-75988108D02*
X101972407Y-75988108D01*
X112932407Y-75948108D02*
X101920407Y-75948108D01*
X112984407Y-75908108D02*
X101868407Y-75908108D01*
X113035407Y-75868108D02*
X101817407Y-75868108D01*
X113086407Y-75828108D02*
X101766407Y-75828108D01*
X113135407Y-75788108D02*
X101717407Y-75788108D01*
X113184407Y-75748108D02*
X101668407Y-75748108D01*
X113232407Y-75708108D02*
X101620407Y-75708108D01*
X113280407Y-75668108D02*
X101572407Y-75668108D01*
X113327407Y-75628108D02*
X101525407Y-75628108D01*
X113373407Y-75588108D02*
X101479407Y-75588108D01*
X113419407Y-75548108D02*
X101433407Y-75548108D01*
X113441407Y-59847668D02*
X111641407Y-59847668D01*
X113464407Y-75508108D02*
X101388407Y-75508108D01*
X113508407Y-75468108D02*
X101344407Y-75468108D01*
X113552407Y-75428108D02*
X101300407Y-75428108D01*
X113596407Y-75388108D02*
X101256407Y-75388108D01*
X113638407Y-75348108D02*
X101214407Y-75348108D01*
X113680407Y-75308108D02*
X101172407Y-75308108D01*
X113722407Y-75268108D02*
X101130407Y-75268108D01*
X113763407Y-75228108D02*
X101089407Y-75228108D01*
X113804407Y-75188108D02*
X101048407Y-75188108D01*
X113844407Y-75148108D02*
X101008407Y-75148108D01*
X113884407Y-75108108D02*
X100968407Y-75108108D01*
X113923407Y-75068108D02*
X100929407Y-75068108D01*
X113962407Y-75028108D02*
X100890407Y-75028108D01*
X114000407Y-74988108D02*
X100852407Y-74988108D01*
X114038407Y-74948108D02*
X100814407Y-74948108D01*
X114075407Y-74908108D02*
X100777407Y-74908108D01*
X114112407Y-74868108D02*
X100740407Y-74868108D01*
X114148407Y-74828108D02*
X100704407Y-74828108D01*
X114184407Y-74788108D02*
X100668407Y-74788108D01*
X114220407Y-74748108D02*
X100632407Y-74748108D01*
X114255407Y-74708108D02*
X100597407Y-74708108D01*
X114290407Y-74668108D02*
X100562407Y-74668108D01*
X114324407Y-74628108D02*
X100528407Y-74628108D01*
X114358407Y-74588108D02*
X100494407Y-74588108D01*
X114391407Y-74548108D02*
X100461407Y-74548108D01*
X114425407Y-74508108D02*
X100427407Y-74508108D01*
X114457407Y-74468108D02*
X100395407Y-74468108D01*
X114490407Y-74428108D02*
X100362407Y-74428108D01*
X114522407Y-74388108D02*
X100330407Y-74388108D01*
X114553407Y-74348108D02*
X100299407Y-74348108D01*
X114585407Y-74308108D02*
X100267407Y-74308108D01*
X114616407Y-74268108D02*
X100236407Y-74268108D01*
X114646407Y-74228108D02*
X100206407Y-74228108D01*
X114676407Y-74188108D02*
X100176407Y-74188108D01*
X114706407Y-74148108D02*
X100146407Y-74148108D01*
X114736407Y-74108108D02*
X100116407Y-74108108D01*
X114765407Y-74068108D02*
X100087407Y-74068108D01*
X114794407Y-74028108D02*
X100058407Y-74028108D01*
X114823407Y-73988108D02*
X100029407Y-73988108D01*
X114851407Y-73948108D02*
X100001407Y-73948108D01*
X114879407Y-73908108D02*
X99973407Y-73908108D01*
X114906407Y-73868108D02*
X108866407Y-73868108D01*
X114934407Y-73828108D02*
X108866407Y-73828108D01*
X114961407Y-73788108D02*
X108866407Y-73788108D01*
X114987407Y-73748108D02*
X108866407Y-73748108D01*
X115014407Y-73708108D02*
X108866407Y-73708108D01*
X115040407Y-73668108D02*
X108866407Y-73668108D01*
X115066407Y-73628108D02*
X108866407Y-73628108D01*
X115091407Y-73588108D02*
X108866407Y-73588108D01*
X115116407Y-73548108D02*
X108866407Y-73548108D01*
X115141407Y-73508108D02*
X108866407Y-73508108D01*
X115166407Y-73468108D02*
X108866407Y-73468108D01*
X115190407Y-73428108D02*
X108866407Y-73428108D01*
X115214407Y-73388108D02*
X108866407Y-73388108D01*
X115238407Y-73348108D02*
X108866407Y-73348108D01*
X115261407Y-73308108D02*
X108866407Y-73308108D01*
X115285407Y-73268108D02*
X108866407Y-73268108D01*
X115308407Y-73228108D02*
X108866407Y-73228108D01*
X115330407Y-73188108D02*
X108866407Y-73188108D01*
X115353407Y-73148108D02*
X108866407Y-73148108D01*
X115375407Y-73108108D02*
X108866407Y-73108108D01*
X115397407Y-73068108D02*
X108866407Y-73068108D01*
X115418407Y-73028108D02*
X108866407Y-73028108D01*
X115440407Y-72988108D02*
X108866407Y-72988108D01*
X115461407Y-72948108D02*
X108866407Y-72948108D01*
X115482407Y-72908108D02*
X108866407Y-72908108D01*
X115502407Y-72868108D02*
X108866407Y-72868108D01*
X115523407Y-72828108D02*
X108866407Y-72828108D01*
X115543407Y-72788108D02*
X108866407Y-72788108D01*
X115563407Y-72748108D02*
X108866407Y-72748108D01*
X115582407Y-72708108D02*
X108866407Y-72708108D01*
X115602407Y-72668108D02*
X108866407Y-72668108D01*
X115621407Y-72628108D02*
X108866407Y-72628108D01*
X115640407Y-72588108D02*
X108866407Y-72588108D01*
X115659407Y-72548108D02*
X108866407Y-72548108D01*
X115677407Y-72508108D02*
X108866407Y-72508108D01*
X115695407Y-72468108D02*
X108866407Y-72468108D01*
X115713407Y-72428108D02*
X108866407Y-72428108D01*
X115731407Y-72388108D02*
X108866407Y-72388108D01*
X115749407Y-72348108D02*
X108866407Y-72348108D01*
X115766407Y-72308108D02*
X108866407Y-72308108D01*
X115783407Y-72268108D02*
X108866407Y-72268108D01*
X115800407Y-72228108D02*
X108866407Y-72228108D01*
X115816407Y-72188108D02*
X108866407Y-72188108D01*
X115833407Y-72148108D02*
X108866407Y-72148108D01*
X115849407Y-72108108D02*
X108866407Y-72108108D01*
X115865407Y-72068108D02*
X108866407Y-72068108D01*
X115881407Y-72028108D02*
X108866407Y-72028108D01*
X115896407Y-71988108D02*
X108866407Y-71988108D01*
X115912407Y-71948108D02*
X108866407Y-71948108D01*
X115927407Y-71908108D02*
X108866407Y-71908108D01*
X115942407Y-71868108D02*
X108866407Y-71868108D01*
X115956407Y-71828108D02*
X108866407Y-71828108D01*
X115971407Y-71788108D02*
X108866407Y-71788108D01*
X115985407Y-71748108D02*
X108866407Y-71748108D01*
X115999407Y-71708108D02*
X108866407Y-71708108D01*
X116013407Y-71668108D02*
X108866407Y-71668108D01*
X116026407Y-71628108D02*
X108866407Y-71628108D01*
X116040407Y-71588108D02*
X108866407Y-71588108D01*
X116053407Y-71548108D02*
X108866407Y-71548108D01*
X116066407Y-71508108D02*
X108866407Y-71508108D01*
X116079407Y-71468108D02*
X108866407Y-71468108D01*
X116091407Y-71428108D02*
X108866407Y-71428108D01*
X116104407Y-71388108D02*
X108866407Y-71388108D01*
X116116407Y-71348108D02*
X108866407Y-71348108D01*
X116128407Y-71308108D02*
X108866407Y-71308108D01*
X116140407Y-71268108D02*
X108866407Y-71268108D01*
X116151407Y-71228108D02*
X108866407Y-71228108D01*
X116163407Y-71188108D02*
X108866407Y-71188108D01*
X116174407Y-71148108D02*
X108866407Y-71148108D01*
X116185407Y-71108108D02*
X108866407Y-71108108D01*
X116196407Y-71068108D02*
X108866407Y-71068108D01*
X116206407Y-71028108D02*
X108866407Y-71028108D01*
X116217407Y-70988108D02*
X98635407Y-70988108D01*
X116227407Y-70948108D02*
X98625407Y-70948108D01*
X116237407Y-70908108D02*
X98615407Y-70908108D01*
X116247407Y-70868108D02*
X98605407Y-70868108D01*
X116257407Y-70828108D02*
X98595407Y-70828108D01*
X116266407Y-70788108D02*
X98586407Y-70788108D01*
X116275407Y-70748108D02*
X98577407Y-70748108D01*
X116284407Y-70708108D02*
X98568407Y-70708108D01*
X116293407Y-70668108D02*
X98559407Y-70668108D01*
X116302407Y-70628108D02*
X98550407Y-70628108D01*
X116311407Y-70588108D02*
X98541407Y-70588108D01*
X116319407Y-70548108D02*
X98533407Y-70548108D01*
X116327407Y-70508108D02*
X98525407Y-70508108D01*
X116335407Y-70468108D02*
X98517407Y-70468108D01*
X116343407Y-70428108D02*
X98509407Y-70428108D01*
X116350407Y-70388108D02*
X98502407Y-70388108D01*
X116358407Y-70348108D02*
X98494407Y-70348108D01*
X116365407Y-70308108D02*
X98487407Y-70308108D01*
X116372407Y-70268108D02*
X98480407Y-70268108D01*
X116379407Y-70228108D02*
X98473407Y-70228108D01*
X116386407Y-70188108D02*
X98466407Y-70188108D01*
X116392407Y-70148108D02*
X98460407Y-70148108D01*
X116398407Y-70108108D02*
X98454407Y-70108108D01*
X116405407Y-70068108D02*
X98447407Y-70068108D01*
X116410407Y-70028108D02*
X98442407Y-70028108D01*
X116416407Y-69988108D02*
X98436407Y-69988108D01*
X116422407Y-69948108D02*
X98430407Y-69948108D01*
X116427407Y-69908108D02*
X98425407Y-69908108D01*
X116432407Y-69868108D02*
X98420407Y-69868108D01*
X116437407Y-69828108D02*
X98415407Y-69828108D01*
X116442407Y-69788108D02*
X98410407Y-69788108D01*
X116447407Y-69748108D02*
X98405407Y-69748108D01*
X116452407Y-69708108D02*
X98400407Y-69708108D01*
X116456407Y-69668108D02*
X98396407Y-69668108D01*
X116460407Y-69628108D02*
X98392407Y-69628108D01*
X116464407Y-69588108D02*
X98388407Y-69588108D01*
X116468407Y-69548108D02*
X98384407Y-69548108D01*
X116471407Y-69508108D02*
X98381407Y-69508108D01*
X116475407Y-69468108D02*
X98377407Y-69468108D01*
X116478407Y-69428108D02*
X98374407Y-69428108D01*
X116481407Y-69387108D02*
X98371407Y-69387108D01*
X116484407Y-69347108D02*
X98368407Y-69347108D01*
X116487407Y-69307108D02*
X98365407Y-69307108D01*
X116489407Y-69267108D02*
X98363407Y-69267108D01*
X116492407Y-69227108D02*
X98360407Y-69227108D01*
X116494407Y-69187108D02*
X98358407Y-69187108D01*
X116496407Y-69147108D02*
X98356407Y-69147108D01*
X116498407Y-69107108D02*
X98354407Y-69107108D01*
X116499407Y-69067108D02*
X98353407Y-69067108D01*
X116501407Y-69027108D02*
X98351407Y-69027108D01*
X116502407Y-68987108D02*
X98350407Y-68987108D01*
X116503407Y-68947108D02*
X98349407Y-68947108D01*
X116504407Y-68907108D02*
X98348407Y-68907108D01*
X116505407Y-68867108D02*
X98347407Y-68867108D01*
X116506407Y-68747108D02*
X98346407Y-68747108D01*
X116506407Y-68787108D02*
X98346407Y-68787108D01*
X116506407Y-68827108D02*
X98346407Y-68827108D01*
X116507407Y-68707108D02*
X98345407Y-68707108D01*
X116546407Y-68707108D02*
G75*
G02*
X98306407Y-68707108I-9120000J0D01*
G01*
X98306407Y-68707108D02*
G75*
G02*
X116546407Y-68707108I9120000J0D01*
G01*
%TO.C,U9*%
X83030000Y-85745000D02*
X83030000Y-90945000D01*
X83030000Y-90945000D02*
X88330000Y-90945000D01*
X84680000Y-85745000D02*
X83030000Y-85745000D01*
X88330000Y-85745000D02*
X86680000Y-85745000D01*
X88330000Y-90945000D02*
X88330000Y-85745000D01*
X86680000Y-85745000D02*
G75*
G02*
X84680000Y-85745000I-1000000J0D01*
G01*
%TO.C,U11*%
X92370000Y-50620000D02*
X92510000Y-50620000D01*
X92510000Y-48650000D02*
X92510000Y-52590000D01*
X92510000Y-52590000D02*
X101650000Y-52590000D01*
X100075000Y-52590000D02*
X100075000Y-48650000D01*
X100195000Y-52590000D02*
X100195000Y-48650000D01*
X100315000Y-52590000D02*
X100315000Y-48650000D01*
X101650000Y-48650000D02*
X92510000Y-48650000D01*
X101650000Y-52590000D02*
X101650000Y-48650000D01*
X101790000Y-50620000D02*
X101650000Y-50620000D01*
%TO.C,J1*%
X118280000Y-69570000D02*
X119610000Y-69570000D01*
X118280000Y-70900000D02*
X118280000Y-69570000D01*
X118280000Y-72170000D02*
X118280000Y-77310000D01*
X118280000Y-72170000D02*
X120940000Y-72170000D01*
X118280000Y-77310000D02*
X120940000Y-77310000D01*
X120940000Y-72170000D02*
X120940000Y-77310000D01*
%TO.C,U10*%
X80920000Y-84350000D02*
X80920000Y-79709000D01*
X84189000Y-84350000D02*
X84189000Y-82840000D01*
X87890000Y-84350000D02*
X87890000Y-82840000D01*
X91160000Y-79709000D02*
X80920000Y-79709000D01*
X91160000Y-82840000D02*
X80920000Y-82840000D01*
X91160000Y-84350000D02*
X80920000Y-84350000D01*
X91160000Y-84350000D02*
X91160000Y-79709000D01*
%TO.C,R1*%
X92120000Y-58485000D02*
X92120000Y-53844000D01*
X95389000Y-58485000D02*
X95389000Y-56975000D01*
X99090000Y-58485000D02*
X99090000Y-56975000D01*
X102360000Y-53844000D02*
X92120000Y-53844000D01*
X102360000Y-56975000D02*
X92120000Y-56975000D01*
X102360000Y-58485000D02*
X92120000Y-58485000D01*
X102360000Y-58485000D02*
X102360000Y-53844000D01*
%TO.C,U3*%
X103300000Y-83895000D02*
X103300000Y-79254000D01*
X106569000Y-83895000D02*
X106569000Y-82385000D01*
X110270000Y-83895000D02*
X110270000Y-82385000D01*
X113540000Y-79254000D02*
X103300000Y-79254000D01*
X113540000Y-82385000D02*
X103300000Y-82385000D01*
X113540000Y-83895000D02*
X103300000Y-83895000D01*
X113540000Y-83895000D02*
X113540000Y-79254000D01*
%TO.C,U4*%
X105380000Y-86725000D02*
X105380000Y-91925000D01*
X105380000Y-91925000D02*
X110680000Y-91925000D01*
X107030000Y-86725000D02*
X105380000Y-86725000D01*
X110680000Y-86725000D02*
X109030000Y-86725000D01*
X110680000Y-91925000D02*
X110680000Y-86725000D01*
X109030000Y-86725000D02*
G75*
G02*
X107030000Y-86725000I-1000000J0D01*
G01*
%TO.C,U6*%
X85036407Y-71015888D02*
X77696407Y-71015888D01*
X85036407Y-71055888D02*
X77706407Y-71055888D01*
X85036407Y-71095888D02*
X77717407Y-71095888D01*
X85036407Y-71135888D02*
X77728407Y-71135888D01*
X85036407Y-71175888D02*
X77739407Y-71175888D01*
X85036407Y-71215888D02*
X77751407Y-71215888D01*
X85036407Y-71255888D02*
X77762407Y-71255888D01*
X85036407Y-71295888D02*
X77774407Y-71295888D01*
X85036407Y-71335888D02*
X77786407Y-71335888D01*
X85036407Y-71375888D02*
X77798407Y-71375888D01*
X85036407Y-71415888D02*
X77811407Y-71415888D01*
X85036407Y-71455888D02*
X77823407Y-71455888D01*
X85036407Y-71495888D02*
X77836407Y-71495888D01*
X85036407Y-71535888D02*
X77849407Y-71535888D01*
X85036407Y-71575888D02*
X77862407Y-71575888D01*
X85036407Y-71615888D02*
X77876407Y-71615888D01*
X85036407Y-71655888D02*
X77889407Y-71655888D01*
X85036407Y-71695888D02*
X77903407Y-71695888D01*
X85036407Y-71735888D02*
X77917407Y-71735888D01*
X85036407Y-71775888D02*
X77931407Y-71775888D01*
X85036407Y-71815888D02*
X77946407Y-71815888D01*
X85036407Y-71855888D02*
X77960407Y-71855888D01*
X85036407Y-71895888D02*
X77975407Y-71895888D01*
X85036407Y-71935888D02*
X77990407Y-71935888D01*
X85036407Y-71975888D02*
X78006407Y-71975888D01*
X85036407Y-72015888D02*
X78021407Y-72015888D01*
X85036407Y-72055888D02*
X78037407Y-72055888D01*
X85036407Y-72095888D02*
X78053407Y-72095888D01*
X85036407Y-72135888D02*
X78069407Y-72135888D01*
X85036407Y-72175888D02*
X78086407Y-72175888D01*
X85036407Y-72215888D02*
X78102407Y-72215888D01*
X85036407Y-72255888D02*
X78119407Y-72255888D01*
X85036407Y-72295888D02*
X78136407Y-72295888D01*
X85036407Y-72335888D02*
X78153407Y-72335888D01*
X85036407Y-72375888D02*
X78171407Y-72375888D01*
X85036407Y-72415888D02*
X78189407Y-72415888D01*
X85036407Y-72455888D02*
X78207407Y-72455888D01*
X85036407Y-72495888D02*
X78225407Y-72495888D01*
X85036407Y-72535888D02*
X78243407Y-72535888D01*
X85036407Y-72575888D02*
X78262407Y-72575888D01*
X85036407Y-72615888D02*
X78281407Y-72615888D01*
X85036407Y-72655888D02*
X78300407Y-72655888D01*
X85036407Y-72695888D02*
X78320407Y-72695888D01*
X85036407Y-72735888D02*
X78339407Y-72735888D01*
X85036407Y-72775888D02*
X78359407Y-72775888D01*
X85036407Y-72815888D02*
X78379407Y-72815888D01*
X85036407Y-72855888D02*
X78400407Y-72855888D01*
X85036407Y-72895888D02*
X78420407Y-72895888D01*
X85036407Y-72935888D02*
X78441407Y-72935888D01*
X85036407Y-72975888D02*
X78462407Y-72975888D01*
X85036407Y-73015888D02*
X78484407Y-73015888D01*
X85036407Y-73055888D02*
X78505407Y-73055888D01*
X85036407Y-73095888D02*
X78527407Y-73095888D01*
X85036407Y-73135888D02*
X78549407Y-73135888D01*
X85036407Y-73175888D02*
X78572407Y-73175888D01*
X85036407Y-73215888D02*
X78594407Y-73215888D01*
X85036407Y-73255888D02*
X78617407Y-73255888D01*
X85036407Y-73295888D02*
X78641407Y-73295888D01*
X85036407Y-73335888D02*
X78664407Y-73335888D01*
X85036407Y-73375888D02*
X78688407Y-73375888D01*
X85036407Y-73415888D02*
X78712407Y-73415888D01*
X85036407Y-73455888D02*
X78736407Y-73455888D01*
X85036407Y-73495888D02*
X78761407Y-73495888D01*
X85036407Y-73535888D02*
X78786407Y-73535888D01*
X85036407Y-73575888D02*
X78811407Y-73575888D01*
X85036407Y-73615888D02*
X78836407Y-73615888D01*
X85036407Y-73655888D02*
X78862407Y-73655888D01*
X85036407Y-73695888D02*
X78888407Y-73695888D01*
X85036407Y-73735888D02*
X78915407Y-73735888D01*
X85036407Y-73775888D02*
X78941407Y-73775888D01*
X85036407Y-73815888D02*
X78968407Y-73815888D01*
X85036407Y-73855888D02*
X78996407Y-73855888D01*
X86516407Y-77814888D02*
X86436407Y-77814888D01*
X87290407Y-77774888D02*
X85662407Y-77774888D01*
X87642407Y-77734888D02*
X85310407Y-77734888D01*
X87911407Y-77694888D02*
X85041407Y-77694888D01*
X88137407Y-77654888D02*
X84815407Y-77654888D01*
X88336407Y-77614888D02*
X84616407Y-77614888D01*
X88515407Y-77574888D02*
X84437407Y-77574888D01*
X88679407Y-77534888D02*
X84273407Y-77534888D01*
X88831407Y-77494888D02*
X84121407Y-77494888D01*
X88974407Y-77454888D02*
X83978407Y-77454888D01*
X89108407Y-77414888D02*
X83844407Y-77414888D01*
X89235407Y-77374888D02*
X83717407Y-77374888D01*
X89356407Y-77334888D02*
X83596407Y-77334888D01*
X89472407Y-77294888D02*
X83480407Y-77294888D01*
X89583407Y-77254888D02*
X83369407Y-77254888D01*
X89690407Y-77214888D02*
X83262407Y-77214888D01*
X89793407Y-77174888D02*
X83159407Y-77174888D01*
X89892407Y-77134888D02*
X83060407Y-77134888D01*
X89988407Y-77094888D02*
X82964407Y-77094888D01*
X90081407Y-77054888D02*
X82871407Y-77054888D01*
X90172407Y-77014888D02*
X82780407Y-77014888D01*
X90260407Y-76974888D02*
X82692407Y-76974888D01*
X90345407Y-76934888D02*
X82607407Y-76934888D01*
X90428407Y-76894888D02*
X82524407Y-76894888D01*
X90509407Y-76855888D02*
X82443407Y-76855888D01*
X90589407Y-76815888D02*
X82363407Y-76815888D01*
X90666407Y-76775888D02*
X82286407Y-76775888D01*
X90741407Y-76735888D02*
X82211407Y-76735888D01*
X90815407Y-76695888D02*
X82137407Y-76695888D01*
X90888407Y-76655888D02*
X82064407Y-76655888D01*
X90958407Y-76615888D02*
X81994407Y-76615888D01*
X91028407Y-76575888D02*
X81924407Y-76575888D01*
X91096407Y-76535888D02*
X81856407Y-76535888D01*
X91162407Y-76495888D02*
X81790407Y-76495888D01*
X91228407Y-76455888D02*
X81724407Y-76455888D01*
X91292407Y-76415888D02*
X81660407Y-76415888D01*
X91355407Y-76375888D02*
X81597407Y-76375888D01*
X91417407Y-76335888D02*
X81535407Y-76335888D01*
X91478407Y-76295888D02*
X81474407Y-76295888D01*
X91538407Y-76255888D02*
X81414407Y-76255888D01*
X91591407Y-58935448D02*
X91591407Y-60735448D01*
X91596407Y-76215888D02*
X81356407Y-76215888D01*
X91654407Y-76175888D02*
X81298407Y-76175888D01*
X91711407Y-76135888D02*
X81241407Y-76135888D01*
X91767407Y-76095888D02*
X81185407Y-76095888D01*
X91822407Y-76055888D02*
X81130407Y-76055888D01*
X91876407Y-76015888D02*
X81076407Y-76015888D01*
X91930407Y-75975888D02*
X81022407Y-75975888D01*
X91982407Y-75935888D02*
X80970407Y-75935888D01*
X92034407Y-75895888D02*
X80918407Y-75895888D01*
X92085407Y-75855888D02*
X80867407Y-75855888D01*
X92136407Y-75815888D02*
X80816407Y-75815888D01*
X92185407Y-75775888D02*
X80767407Y-75775888D01*
X92234407Y-75735888D02*
X80718407Y-75735888D01*
X92282407Y-75695888D02*
X80670407Y-75695888D01*
X92330407Y-75655888D02*
X80622407Y-75655888D01*
X92377407Y-75615888D02*
X80575407Y-75615888D01*
X92423407Y-75575888D02*
X80529407Y-75575888D01*
X92469407Y-75535888D02*
X80483407Y-75535888D01*
X92491407Y-59835448D02*
X90691407Y-59835448D01*
X92514407Y-75495888D02*
X80438407Y-75495888D01*
X92558407Y-75455888D02*
X80394407Y-75455888D01*
X92602407Y-75415888D02*
X80350407Y-75415888D01*
X92646407Y-75375888D02*
X80306407Y-75375888D01*
X92688407Y-75335888D02*
X80264407Y-75335888D01*
X92730407Y-75295888D02*
X80222407Y-75295888D01*
X92772407Y-75255888D02*
X80180407Y-75255888D01*
X92813407Y-75215888D02*
X80139407Y-75215888D01*
X92854407Y-75175888D02*
X80098407Y-75175888D01*
X92894407Y-75135888D02*
X80058407Y-75135888D01*
X92934407Y-75095888D02*
X80018407Y-75095888D01*
X92973407Y-75055888D02*
X79979407Y-75055888D01*
X93012407Y-75015888D02*
X79940407Y-75015888D01*
X93050407Y-74975888D02*
X79902407Y-74975888D01*
X93088407Y-74935888D02*
X79864407Y-74935888D01*
X93125407Y-74895888D02*
X79827407Y-74895888D01*
X93162407Y-74855888D02*
X79790407Y-74855888D01*
X93198407Y-74815888D02*
X79754407Y-74815888D01*
X93234407Y-74775888D02*
X79718407Y-74775888D01*
X93270407Y-74735888D02*
X79682407Y-74735888D01*
X93305407Y-74695888D02*
X79647407Y-74695888D01*
X93340407Y-74655888D02*
X79612407Y-74655888D01*
X93374407Y-74615888D02*
X79578407Y-74615888D01*
X93408407Y-74575888D02*
X79544407Y-74575888D01*
X93441407Y-74535888D02*
X79511407Y-74535888D01*
X93475407Y-74495888D02*
X79477407Y-74495888D01*
X93507407Y-74455888D02*
X79445407Y-74455888D01*
X93540407Y-74415888D02*
X79412407Y-74415888D01*
X93572407Y-74375888D02*
X79380407Y-74375888D01*
X93603407Y-74335888D02*
X79349407Y-74335888D01*
X93635407Y-74295888D02*
X79317407Y-74295888D01*
X93666407Y-74255888D02*
X79286407Y-74255888D01*
X93696407Y-74215888D02*
X79256407Y-74215888D01*
X93726407Y-74175888D02*
X79226407Y-74175888D01*
X93756407Y-74135888D02*
X79196407Y-74135888D01*
X93786407Y-74095888D02*
X79166407Y-74095888D01*
X93815407Y-74055888D02*
X79137407Y-74055888D01*
X93844407Y-74015888D02*
X79108407Y-74015888D01*
X93873407Y-73975888D02*
X79079407Y-73975888D01*
X93901407Y-73935888D02*
X79051407Y-73935888D01*
X93929407Y-73895888D02*
X79023407Y-73895888D01*
X93956407Y-73855888D02*
X87916407Y-73855888D01*
X93984407Y-73815888D02*
X87916407Y-73815888D01*
X94011407Y-73775888D02*
X87916407Y-73775888D01*
X94037407Y-73735888D02*
X87916407Y-73735888D01*
X94064407Y-73695888D02*
X87916407Y-73695888D01*
X94090407Y-73655888D02*
X87916407Y-73655888D01*
X94116407Y-73615888D02*
X87916407Y-73615888D01*
X94141407Y-73575888D02*
X87916407Y-73575888D01*
X94166407Y-73535888D02*
X87916407Y-73535888D01*
X94191407Y-73495888D02*
X87916407Y-73495888D01*
X94216407Y-73455888D02*
X87916407Y-73455888D01*
X94240407Y-73415888D02*
X87916407Y-73415888D01*
X94264407Y-73375888D02*
X87916407Y-73375888D01*
X94288407Y-73335888D02*
X87916407Y-73335888D01*
X94311407Y-73295888D02*
X87916407Y-73295888D01*
X94335407Y-73255888D02*
X87916407Y-73255888D01*
X94358407Y-73215888D02*
X87916407Y-73215888D01*
X94380407Y-73175888D02*
X87916407Y-73175888D01*
X94403407Y-73135888D02*
X87916407Y-73135888D01*
X94425407Y-73095888D02*
X87916407Y-73095888D01*
X94447407Y-73055888D02*
X87916407Y-73055888D01*
X94468407Y-73015888D02*
X87916407Y-73015888D01*
X94490407Y-72975888D02*
X87916407Y-72975888D01*
X94511407Y-72935888D02*
X87916407Y-72935888D01*
X94532407Y-72895888D02*
X87916407Y-72895888D01*
X94552407Y-72855888D02*
X87916407Y-72855888D01*
X94573407Y-72815888D02*
X87916407Y-72815888D01*
X94593407Y-72775888D02*
X87916407Y-72775888D01*
X94613407Y-72735888D02*
X87916407Y-72735888D01*
X94632407Y-72695888D02*
X87916407Y-72695888D01*
X94652407Y-72655888D02*
X87916407Y-72655888D01*
X94671407Y-72615888D02*
X87916407Y-72615888D01*
X94690407Y-72575888D02*
X87916407Y-72575888D01*
X94709407Y-72535888D02*
X87916407Y-72535888D01*
X94727407Y-72495888D02*
X87916407Y-72495888D01*
X94745407Y-72455888D02*
X87916407Y-72455888D01*
X94763407Y-72415888D02*
X87916407Y-72415888D01*
X94781407Y-72375888D02*
X87916407Y-72375888D01*
X94799407Y-72335888D02*
X87916407Y-72335888D01*
X94816407Y-72295888D02*
X87916407Y-72295888D01*
X94833407Y-72255888D02*
X87916407Y-72255888D01*
X94850407Y-72215888D02*
X87916407Y-72215888D01*
X94866407Y-72175888D02*
X87916407Y-72175888D01*
X94883407Y-72135888D02*
X87916407Y-72135888D01*
X94899407Y-72095888D02*
X87916407Y-72095888D01*
X94915407Y-72055888D02*
X87916407Y-72055888D01*
X94931407Y-72015888D02*
X87916407Y-72015888D01*
X94946407Y-71975888D02*
X87916407Y-71975888D01*
X94962407Y-71935888D02*
X87916407Y-71935888D01*
X94977407Y-71895888D02*
X87916407Y-71895888D01*
X94992407Y-71855888D02*
X87916407Y-71855888D01*
X95006407Y-71815888D02*
X87916407Y-71815888D01*
X95021407Y-71775888D02*
X87916407Y-71775888D01*
X95035407Y-71735888D02*
X87916407Y-71735888D01*
X95049407Y-71695888D02*
X87916407Y-71695888D01*
X95063407Y-71655888D02*
X87916407Y-71655888D01*
X95076407Y-71615888D02*
X87916407Y-71615888D01*
X95090407Y-71575888D02*
X87916407Y-71575888D01*
X95103407Y-71535888D02*
X87916407Y-71535888D01*
X95116407Y-71495888D02*
X87916407Y-71495888D01*
X95129407Y-71455888D02*
X87916407Y-71455888D01*
X95141407Y-71415888D02*
X87916407Y-71415888D01*
X95154407Y-71375888D02*
X87916407Y-71375888D01*
X95166407Y-71335888D02*
X87916407Y-71335888D01*
X95178407Y-71295888D02*
X87916407Y-71295888D01*
X95190407Y-71255888D02*
X87916407Y-71255888D01*
X95201407Y-71215888D02*
X87916407Y-71215888D01*
X95213407Y-71175888D02*
X87916407Y-71175888D01*
X95224407Y-71135888D02*
X87916407Y-71135888D01*
X95235407Y-71095888D02*
X87916407Y-71095888D01*
X95246407Y-71055888D02*
X87916407Y-71055888D01*
X95256407Y-71015888D02*
X87916407Y-71015888D01*
X95267407Y-70975888D02*
X77685407Y-70975888D01*
X95277407Y-70935888D02*
X77675407Y-70935888D01*
X95287407Y-70895888D02*
X77665407Y-70895888D01*
X95297407Y-70855888D02*
X77655407Y-70855888D01*
X95307407Y-70815888D02*
X77645407Y-70815888D01*
X95316407Y-70775888D02*
X77636407Y-70775888D01*
X95325407Y-70735888D02*
X77627407Y-70735888D01*
X95334407Y-70695888D02*
X77618407Y-70695888D01*
X95343407Y-70655888D02*
X77609407Y-70655888D01*
X95352407Y-70615888D02*
X77600407Y-70615888D01*
X95361407Y-70575888D02*
X77591407Y-70575888D01*
X95369407Y-70535888D02*
X77583407Y-70535888D01*
X95377407Y-70495888D02*
X77575407Y-70495888D01*
X95385407Y-70455888D02*
X77567407Y-70455888D01*
X95393407Y-70415888D02*
X77559407Y-70415888D01*
X95400407Y-70375888D02*
X77552407Y-70375888D01*
X95408407Y-70335888D02*
X77544407Y-70335888D01*
X95415407Y-70295888D02*
X77537407Y-70295888D01*
X95422407Y-70255888D02*
X77530407Y-70255888D01*
X95429407Y-70215888D02*
X77523407Y-70215888D01*
X95436407Y-70175888D02*
X77516407Y-70175888D01*
X95442407Y-70135888D02*
X77510407Y-70135888D01*
X95448407Y-70095888D02*
X77504407Y-70095888D01*
X95455407Y-70055888D02*
X77497407Y-70055888D01*
X95460407Y-70015888D02*
X77492407Y-70015888D01*
X95466407Y-69975888D02*
X77486407Y-69975888D01*
X95472407Y-69935888D02*
X77480407Y-69935888D01*
X95477407Y-69895888D02*
X77475407Y-69895888D01*
X95482407Y-69855888D02*
X77470407Y-69855888D01*
X95487407Y-69815888D02*
X77465407Y-69815888D01*
X95492407Y-69775888D02*
X77460407Y-69775888D01*
X95497407Y-69735888D02*
X77455407Y-69735888D01*
X95502407Y-69695888D02*
X77450407Y-69695888D01*
X95506407Y-69655888D02*
X77446407Y-69655888D01*
X95510407Y-69615888D02*
X77442407Y-69615888D01*
X95514407Y-69575888D02*
X77438407Y-69575888D01*
X95518407Y-69535888D02*
X77434407Y-69535888D01*
X95521407Y-69495888D02*
X77431407Y-69495888D01*
X95525407Y-69455888D02*
X77427407Y-69455888D01*
X95528407Y-69415888D02*
X77424407Y-69415888D01*
X95531407Y-69374888D02*
X77421407Y-69374888D01*
X95534407Y-69334888D02*
X77418407Y-69334888D01*
X95537407Y-69294888D02*
X77415407Y-69294888D01*
X95539407Y-69254888D02*
X77413407Y-69254888D01*
X95542407Y-69214888D02*
X77410407Y-69214888D01*
X95544407Y-69174888D02*
X77408407Y-69174888D01*
X95546407Y-69134888D02*
X77406407Y-69134888D01*
X95548407Y-69094888D02*
X77404407Y-69094888D01*
X95549407Y-69054888D02*
X77403407Y-69054888D01*
X95551407Y-69014888D02*
X77401407Y-69014888D01*
X95552407Y-68974888D02*
X77400407Y-68974888D01*
X95553407Y-68934888D02*
X77399407Y-68934888D01*
X95554407Y-68894888D02*
X77398407Y-68894888D01*
X95555407Y-68854888D02*
X77397407Y-68854888D01*
X95556407Y-68734888D02*
X77396407Y-68734888D01*
X95556407Y-68774888D02*
X77396407Y-68774888D01*
X95556407Y-68814888D02*
X77396407Y-68814888D01*
X95557407Y-68694888D02*
X77395407Y-68694888D01*
X95596407Y-68694888D02*
G75*
G02*
X77356407Y-68694888I-9120000J0D01*
G01*
X77356407Y-68694888D02*
G75*
G02*
X95596407Y-68694888I9120000J0D01*
G01*
%TD*%
M02*
