%TF.GenerationSoftware,KiCad,Pcbnew,8.0.0-dirty*%
%TF.CreationDate,2024-03-12T22:31:02-04:00*%
%TF.ProjectId,KickerPCB,4b69636b-6572-4504-9342-2e6b69636164,rev?*%
%TF.SameCoordinates,Original*%
%TF.FileFunction,Profile,NP*%
%FSLAX46Y46*%
G04 Gerber Fmt 4.6, Leading zero omitted, Abs format (unit mm)*
G04 Created by KiCad (PCBNEW 8.0.0-dirty) date 2024-03-12 22:31:02*
%MOMM*%
%LPD*%
G01*
G04 APERTURE LIST*
%TA.AperFunction,Profile*%
%ADD10C,0.200000*%
%TD*%
G04 APERTURE END LIST*
D10*
X105572268Y-41682878D02*
G75*
G02*
X109861953Y-44077105I1223132J-2848522D01*
G01*
X103599446Y-42088536D02*
X90133368Y-42088536D01*
X79356000Y-92673999D02*
G75*
G02*
X78205186Y-89655040I375600J1871999D01*
G01*
X130311986Y-73746395D02*
X116170986Y-84794555D01*
X77561828Y-84794556D02*
G75*
G02*
X78205185Y-89655039I-2154828J-2758044D01*
G01*
X98466407Y-85613553D02*
G75*
G02*
X95266407Y-85613553I-1600000J0D01*
G01*
X95266407Y-85613553D02*
G75*
G02*
X98466407Y-85613553I1600000J0D01*
G01*
X92766407Y-92734169D02*
X92766407Y-92313553D01*
X63420829Y-73746394D02*
G75*
G02*
X63162325Y-71640904I923471J1181994D01*
G01*
X92766407Y-92734169D02*
G75*
G02*
X91170411Y-94231026I-1499907J-31D01*
G01*
X92766407Y-92313553D02*
G75*
G02*
X100966407Y-92313553I4100000J-5D01*
G01*
X83870860Y-44077105D02*
G75*
G02*
X88160538Y-41682895I3066540J-454295D01*
G01*
X114376814Y-92674000D02*
G75*
G02*
X102562407Y-94231094I-17510414J87260500D01*
G01*
X108395417Y-44531369D02*
G75*
G02*
X105195417Y-44531369I-1600000J0D01*
G01*
X105195417Y-44531369D02*
G75*
G02*
X108395417Y-44531369I1600000J0D01*
G01*
X82864888Y-46422730D02*
X63162304Y-71640887D01*
X91170407Y-94231094D02*
G75*
G02*
X79355999Y-92674006I5695893J88817094D01*
G01*
X90133368Y-42088536D02*
G75*
G02*
X88160553Y-41682861I32J4999936D01*
G01*
X88537397Y-44531369D02*
G75*
G02*
X85337397Y-44531369I-1600000J0D01*
G01*
X85337397Y-44531369D02*
G75*
G02*
X88537397Y-44531369I1600000J0D01*
G01*
X110867926Y-46422730D02*
X130570510Y-71640887D01*
X83870859Y-44077105D02*
G75*
G02*
X82864910Y-46422747I-4946459J732805D01*
G01*
X110867926Y-46422730D02*
G75*
G02*
X109861987Y-44077100I3940274J3078330D01*
G01*
X115527633Y-89655036D02*
G75*
G02*
X114376817Y-92674014I-1526433J-1146964D01*
G01*
X105572268Y-41682877D02*
G75*
G02*
X103599446Y-42088526I-1972868J4594677D01*
G01*
X102562407Y-94231093D02*
G75*
G02*
X100966431Y-92734169I-96007J1496893D01*
G01*
X100966407Y-92734169D02*
X100966407Y-92313553D01*
X63420828Y-73746395D02*
X77561828Y-84794555D01*
X115527634Y-89655035D02*
G75*
G02*
X116170992Y-84794563I2798166J2102435D01*
G01*
X130570510Y-71640887D02*
G75*
G02*
X130311993Y-73746404I-1181910J-923513D01*
G01*
M02*
